<?xml version="1.0" encoding="UTF-8"?>
<svg id="Layer_2" data-name="Layer 2" xmlns="http://www.w3.org/2000/svg" xmlns:xlink="http://www.w3.org/1999/xlink" viewBox="0 0 102 102">
  <defs>
    <style>
      .cls-1 {
        fill: none;
      }

      .cls-2 {
        clip-path: url(#clippath);
      }

      .cls-3 {
        fill: #fff;
      }

      .cls-4 {
        fill: #a8a4a4;
      }

      .cls-5 {
        fill: #731813;
      }

      .cls-6 {
        clip-path: url(#clippath-1);
      }

      .cls-7 {
        clip-path: url(#clippath-3);
      }

      .cls-8 {
        clip-path: url(#clippath-2);
      }
    </style>
    <clipPath id="clippath">
      <rect class="cls-1" x="7.13" y="16.48" width="87.73" height="73.52"/>
    </clipPath>
    <clipPath id="clippath-1">
      <rect class="cls-1" x="7.13" y="16.48" width="87.73" height="73.52"/>
    </clipPath>
    <clipPath id="clippath-2">
      <rect class="cls-1" x="30.22" y="25.47" width="59.86" height="56.62"/>
    </clipPath>
    <clipPath id="clippath-3">
      <rect class="cls-1" x="11.55" y="20.83" width="16.57" height="20.68"/>
    </clipPath>
  </defs>
  <g id="Layer_1-2" data-name="Layer 1">
    <circle id="Ellipse_7" data-name="Ellipse 7" class="cls-3" cx="51" cy="51" r="51"/>
    <g id="Group_8127" data-name="Group 8127">
      <g class="cls-2">
        <g id="Group_8135" data-name="Group 8135">
          <g id="Group_8134" data-name="Group 8134">
            <g class="cls-6">
              <g id="Group_8133" data-name="Group 8133">
                <path id="Path_4142" data-name="Path 4142" class="cls-4" d="m63.03,90c-.11,0-.22,0-.34,0-5.13-.18-8.02-2.15-10.77-4.62-1.53-.13-3.04-.5-4.45-1.09-2.08-.96-4.11-2.03-6.07-3.22l-.9-.52c-.87-.46-1.64-1.08-2.3-1.81-.1-.11-.22-.23-.38-.4-.21-.21-.41-.42-.59-.63-1.95,0-3.9-.24-5.79-.74-1.08-.29-2.1-.73-3.05-1.32-3.02-1.58-4.19-5.32-2.61-8.34.56-1.07,1.42-1.96,2.48-2.54.47-.32.97-.59,1.49-.82-.09-.09-.18-.18-.27-.27-1.99-2.14-3.46-4.72-4.28-7.53-1.27-4.2-.47-8.76,2.14-12.29,1.79-2.31,4.49-2.67,5.95-2.87h.08c.88-.13,1.76-.19,2.64-.19,1.19,0,2.38.11,3.55.34,1.89.3,3.73.88,5.44,1.73,1.41.68,2.74,1.54,3.94,2.54,1.39-.71,2.92-1.1,4.48-1.13,2.21-.1,4.3,1.02,5.44,2.92.57.97.83,2.09.76,3.21.71.54,1.28,1.24,1.66,2.04.96,2.13.62,4.62-.85,6.43-1.03,1.34-2.37,2.4-3.9,3.12-.88.43-1.81.74-2.77.94-.09.23-.17.47-.25.74-.13.41-.2.84-.22,1.27.66.49,1.38.88,2.15,1.15,1.5.34,3.04.49,4.59.44.97.03,1.94-.04,2.9-.21,1.7-.4,3.26-1.24,4.51-2.45,2.39-2.36,3.09-4.78,2.4-8.32-.23-.61-.54-1.17-.95-1.68-.23-.34-.49-.72-.74-1.13-.14-.22-.37-.59-.48-.73-.4-.31-.74-.62-1.03-.89-.22-.2-.46-.42-.6-.52-.1-.05-.34-.15-.52-.22-.65-.24-1.27-.55-1.87-.9-3.85-2.44-6.5-6.37-7.32-10.86-.92-4.48.08-9.14,2.74-12.85,1.17-1.7,3.11-2.71,5.17-2.69.58,0,1.16.07,1.72.2,1.94.41,3.8,1.14,5.5,2.15.37-.08.75-.12,1.13-.12,1,.03,1.98.27,2.88.7l.16.07c.9.35,1.76.82,2.55,1.38,2.14,1.53,4.02,3.4,5.56,5.53,1.57.09,2.98,1,3.71,2.4.14.14.3.3.46.49.64.77,1.21,1.59,1.71,2.45,1,1.74,1.89,3.54,2.69,5.39l.17.36c1.25,2.67,2.03,5.54,2.3,8.48.18,2.05.08,4.12-.3,6.15-.65,2.7-1.71,5.29-3.14,7.68-2.2,4.27-5.22,8.07-8.89,11.17-3.82,3.03-8.22,5.22-12.94,6.45,0,1.11-.3,2.2-.87,3.14-1.23,1.88-3.37,2.97-5.61,2.87h0Z"/>
                <path id="Path_4143" data-name="Path 4143" class="cls-4" d="m91.55,52.9c-.23-2.42-.88-4.79-1.91-6.99-.78-1.82-1.66-3.59-2.63-5.32-.37-.65-.8-1.27-1.28-1.85-.27-.32-1.01-.85-1.01-1.32,0,2.44.09,4.55-1.03,6.81.31-6.03-2.58-10.01-6.92-13.2-.5-.35-1.04-.63-1.61-.85-.47-.28-1.01-.41-1.55-.4-.66.16-.03,1.1-.58,1.58-1.82-1.92-4.19-3.23-6.79-3.74-.87-.32-1.85,0-2.36.79-3.86,5.6-2.45,13.27,3.15,17.13.06.04.11.08.17.12.79.49,1.75.69,2.52,1.21.69.47,1.28,1.12,1.96,1.65.6.52,1.1,1.15,1.48,1.85.89,1.43,1.95,2.62,2.28,4.32.95,4.88-.1,8.85-3.64,12.35-1.83,1.78-4.1,3.02-6.58,3.61-2.26.56-7.9.42-10.08-.38-1.24-.44-2.41-1.08-3.45-1.88-.41-.28-.76-.63-1.05-1.03-.86-1.43-.64-3.48-.17-5,.2-.66.45-1.3.74-1.93.17-.4.41-.76.7-1.08.25-.23.52-.44.81-.62.04-.03.08-.06.12-.09,1.03.04,2.06-.19,2.98-.66,1.98-.96,3.18-2.56,2.68-3.59s-2.5-1.09-4.48-.13c-1,.45-1.86,1.16-2.47,2.07-.83.63-1.99-.55-1.17-1.26.53-.45,1.12-.83,1.74-1.13.6-.16,1.17-.4,1.7-.71,1.9-1.1,2.98-2.79,2.41-3.78s-2.58-.9-4.48.2c-.63.36-1.2.81-1.69,1.35-.25.23-.63.21-.86-.04,0,0,0,0,0,0-1.25-1.77-2.96-3.17-4.93-4.06-1.33-.66-2.76-1.12-4.23-1.34-1.6-.32-3.24-.36-4.85-.14-1.11.15-2.41.3-3.09,1.18-1.71,2.38-2.23,5.42-1.41,8.24.63,2.17,1.76,4.16,3.3,5.81.99.77,2.06,1.44,3.18,2,.75.48.8,1.7.8,2.71.02.37-.05.74-.21,1.07-.43.66-1.47.63-2.17.72-1.25.27-2.46.71-3.59,1.31-1.63,1.1-1.65,2.36.02,3.42.57.35,1.19.62,1.84.79,2.54.57,5.15.75,7.74.52-.12.15-.21.32-.28.5-.09.48.56,1.18.87,1.49.48.61,1.08,1.12,1.76,1.5,2.11,1.28,4.29,2.46,6.53,3.51,2.44,1.06,4.19.51,4.99,1.25,2.8,2.6,4.73,3.96,8.62,4.1,2.13.08,2.72-1.22,1.75-3.15-.45-.89-1.51-1-1.69-2.1.6-.11,4.29-.29,4.85-.44,4.33-1.06,8.38-3.03,11.89-5.78,3.23-2.75,5.88-6.1,7.81-9.88,1.2-1.97,2.09-4.11,2.65-6.35.3-1.63.37-3.29.23-4.93"/>
                <path id="Path_4144" data-name="Path 4144" class="cls-4" d="m40.16,49.82c0,.66-.54,1.2-1.2,1.2s-1.2-.54-1.2-1.2.54-1.2,1.2-1.2,1.2.54,1.2,1.2h0"/>
                <path id="Path_4145" data-name="Path 4145" class="cls-4" d="m20.01,48.43c-1.76-.01-3.48-.51-4.98-1.43-1.65-1.02-3.03-2.44-4-4.12-.53-.88-.95-1.81-1.28-2.78-.31-.89-.53-1.82-.66-2.76-.53-.54-.96-1.18-1.27-1.88-1.44-3.28-.53-7.12,2.23-9.39,1.29-1.07,2.8-1.86,4.41-2.32.5-.15,1.01-.28,1.52-.39.22-.71.51-1.4.86-2.06.05-.09.1-.18.15-.26l-.04.07c.82-1.61,2.43-2.66,4.24-2.77.18-.01.34-.02.51-.02,1.53,0,3.02.5,4.24,1.42.36.27.69.59.97.94.9,1.1,1.26,2.54,1.01,3.94.49.25.96.53,1.41.84,1.87,1.22,3.15,3.16,3.56,5.35.33,1.72.06,3.5-.75,5.05-.29.54-.65,1.04-1.08,1.48-.05.31-.1.61-.17.92-.24,1.16-.61,2.28-1.11,3.35-.35.74-.76,1.46-1.23,2.13-.71,1.02-1.58,1.92-2.57,2.67-.82.62-1.73,1.11-2.69,1.45-1.02.37-2.1.56-3.19.57h-.09Z"/>
                <path id="Path_4146" data-name="Path 4146" class="cls-4" d="m20.66,27.41c.67.09,1.32.16,1.96.27,1.33.2,2.61.69,3.73,1.43.89.55,1.51,1.44,1.72,2.46.15.74.05,1.51-.29,2.18-.25.5-.73.85-1.29.92-.11.01-.14.06-.14.15,0,.18,0,.35,0,.53-.02.67-.1,1.33-.24,1.98-.17.81-.43,1.61-.78,2.36-.24.51-.52,1-.84,1.46-.44.64-.98,1.2-1.6,1.67-.46.35-.97.62-1.51.82-.55.21-1.14.31-1.73.31-.95,0-1.89-.27-2.7-.78-1.04-.65-1.9-1.55-2.51-2.61-.36-.6-.65-1.24-.88-1.91-.24-.68-.41-1.38-.49-2.1-.06-.57-.08-1.15-.11-1.72,0-.09-.02-.15-.14-.17-.6-.07-1.12-.46-1.34-1.02-.66-1.47-.23-3.19,1.04-4.18.84-.67,1.8-1.17,2.84-1.46,1.25-.37,2.54-.57,3.83-.6.12,0,.14-.04.15-.14.08-1.35.43-2.67,1.02-3.88.05-.09.1-.18.15-.27.11-.21.33-.34.57-.34.63-.05,1.26.14,1.77.52.06.04.11.09.15.15.15.15.16.39,0,.54-.02.02-.03.03-.05.04-.66.62-1.23,1.32-1.71,2.08-.21.36-.37.75-.55,1.13-.02.05-.03.1-.05.15"/>
                <path id="Path_4147" data-name="Path 4147" class="cls-3" d="m62.18,86.44c-.11,0-.22,0-.33,0-5.01-.18-7.83-2.1-10.51-4.51-1.5-.12-2.96-.48-4.35-1.07-2.03-.94-4.01-1.98-5.93-3.14l-.88-.51c-.84-.45-1.6-1.05-2.24-1.76-.1-.1-.21-.23-.38-.39-.21-.21-.4-.41-.57-.62-1.91,0-3.81-.24-5.65-.72-1.05-.28-2.05-.72-2.97-1.3-2.95-1.54-4.09-5.19-2.55-8.14.55-1.05,1.39-1.91,2.42-2.48.46-.31.94-.58,1.45-.8-.09-.09-.18-.18-.26-.27-1.94-2.09-3.37-4.6-4.18-7.34-1.24-4.11-.46-8.55,2.09-12,1.74-2.26,4.39-2.61,5.81-2.8h.08c.85-.13,1.72-.18,2.58-.18,1.16,0,2.32.11,3.46.33,1.85.29,3.64.86,5.31,1.7,1.38.67,2.67,1.5,3.85,2.48,1.35-.69,2.85-1.07,4.37-1.1,2.16-.09,4.2,1,5.31,2.85.55.95.81,2.04.74,3.14.69.52,1.25,1.2,1.63,1.98.93,2.08.61,4.51-.83,6.28-1.01,1.3-2.32,2.35-3.81,3.04-.86.42-1.76.72-2.7.91-.08.22-.17.46-.25.72-.13.4-.2.82-.21,1.24.64.48,1.35.86,2.1,1.12,1.47.33,2.97.48,4.47.43.95.03,1.9-.04,2.83-.2,1.66-.39,3.18-1.21,4.4-2.39,2.34-2.31,3.02-4.66,2.34-8.12-.22-.59-.53-1.14-.92-1.64-.22-.33-.47-.7-.73-1.1-.14-.22-.36-.58-.47-.71-.39-.31-.72-.6-1.01-.87-.21-.19-.45-.41-.59-.51-.09-.05-.33-.14-.51-.22-.63-.24-1.24-.54-1.82-.89-3.75-2.38-6.34-6.23-7.14-10.6-.89-4.37.08-8.92,2.68-12.54,1.14-1.66,3.03-2.64,5.05-2.63.57,0,1.13.07,1.68.19,1.89.4,3.71,1.11,5.37,2.1.36-.08.73-.12,1.1-.12.98.03,1.93.26,2.82.68l.15.07c.88.35,1.72.8,2.49,1.35,2.09,1.49,3.92,3.31,5.42,5.4,1.54.09,2.91.98,3.62,2.35.14.13.29.29.44.47.62.75,1.18,1.55,1.67,2.4.97,1.7,1.85,3.46,2.63,5.26l.16.35c1.22,2.61,1.98,5.41,2.24,8.28.18,2,.08,4.02-.29,6-.63,2.64-1.66,5.17-3.06,7.49-2.15,4.17-5.1,7.87-8.68,10.9-3.73,2.95-8.03,5.1-12.63,6.3,0,1.08-.29,2.14-.85,3.07-1.2,1.84-3.29,2.9-5.48,2.8h0Z"/>
                <g id="Group_8129" data-name="Group 8129">
                  <g id="Group_8128" data-name="Group 8128">
                    <g class="cls-8">
                      <g id="Group_8127-2" data-name="Group 8127-2">
                        <path id="Path_4148" data-name="Path 4148" class="cls-5" d="m90.01,50.23c-.23-2.37-.86-4.67-1.87-6.83-.76-1.78-1.62-3.51-2.57-5.19-.36-.64-.78-1.24-1.25-1.81-.26-.31-.99-.83-.99-1.28,0,2.39.09,4.44-1,6.64.3-5.88-2.51-9.77-6.75-12.88-.49-.34-1.02-.62-1.57-.83-.46-.27-.98-.41-1.51-.39-.64.16-.03,1.07-.57,1.54-1.78-1.87-4.09-3.15-6.62-3.65-.85-.32-1.81,0-2.3.77-3.77,5.47-2.39,12.95,3.07,16.72.06.04.11.08.17.11.78.48,1.71.67,2.46,1.18.68.46,1.25,1.1,1.91,1.61.58.51,1.07,1.12,1.44,1.8.87,1.4,1.91,2.56,2.23,4.21.93,4.76-.1,8.64-3.56,12.06-1.78,1.73-4,2.95-6.42,3.52-2.2.54-7.71.41-9.84-.37-1.22-.43-2.35-1.05-3.37-1.84-.4-.28-.74-.62-1.02-1.01-.84-1.39-.63-3.39-.17-4.88.19-.64.43-1.27.72-1.88.17-.39.4-.75.68-1.06.24-.23.51-.43.79-.6.04-.03.08-.06.12-.09,1.01.04,2-.19,2.9-.65,1.93-.93,3.1-2.5,2.62-3.51s-2.44-1.06-4.37-.13c-.98.44-1.82,1.14-2.41,2.03-.81.62-1.94-.53-1.14-1.24.52-.44,1.09-.81,1.7-1.11.58-.16,1.14-.39,1.66-.7,1.86-1.07,2.91-2.72,2.35-3.69s-2.51-.88-4.37.19c-.62.35-1.17.8-1.65,1.32-.24.22-.62.2-.84-.04-1.22-1.72-2.88-3.09-4.81-3.96-1.3-.65-2.7-1.09-4.13-1.3-1.56-.31-3.16-.36-4.74-.13-1.08.14-2.35.29-3.02,1.15-1.67,2.33-2.18,5.29-1.38,8.05.62,2.12,1.72,4.06,3.22,5.67.96.75,2,1.41,3.1,1.95.73.47.78,1.66.78,2.65.02.36-.05.72-.21,1.04-.42.64-1.44.62-2.12.7-1.22.27-2.4.69-3.5,1.28-1.59,1.08-1.61,2.31.01,3.34.56.34,1.17.61,1.8.78,2.48.56,5.03.73,7.56.51-.11.15-.21.31-.27.49-.09.47.54,1.15.85,1.46.47.6,1.05,1.09,1.72,1.46,2.06,1.25,4.19,2.4,6.37,3.43,2.39,1.03,4.09.5,4.87,1.22,2.73,2.54,4.62,3.86,8.41,4,2.08.07,2.65-1.19,1.7-3.08-.44-.87-1.48-.98-1.65-2.05.58-.11,4.18-.28,4.74-.43,4.23-1.04,8.18-2.96,11.61-5.64,3.15-2.68,5.74-5.96,7.62-9.65,1.17-1.93,2.04-4.02,2.58-6.2.29-1.59.36-3.21.22-4.82"/>
                      </g>
                    </g>
                  </g>
                </g>
                <path id="Path_4149" data-name="Path 4149" class="cls-3" d="m20.18,45.87c-1.72-.01-3.4-.49-4.86-1.39-1.61-1-2.96-2.38-3.91-4.02-.98-1.66-1.63-3.49-1.9-5.4-.52-.53-.94-1.15-1.24-1.83-1.41-3.2-.52-6.94,2.18-9.17,1.26-1.04,2.73-1.81,4.3-2.26.49-.15.98-.28,1.49-.38.22-.7.5-1.37.84-2.01.05-.09.1-.17.15-.26l-.03.07c.8-1.57,2.38-2.61,4.14-2.71.17-.01.34-.02.5-.02,1.49,0,2.95.49,4.14,1.38.35.26.67.57.94.92.88,1.08,1.23,2.48.98,3.85.48.24.94.52,1.38.82,1.82,1.2,3.08,3.08,3.47,5.23.32,1.68.06,3.42-.73,4.93-.28.53-.64,1.01-1.06,1.44-.05.3-.1.6-.16.9-.23,1.13-.6,2.23-1.08,3.27-.34.73-.74,1.42-1.2,2.08-.7.99-1.54,1.87-2.51,2.6-.8.6-1.69,1.08-2.63,1.42-1,.36-2.05.55-3.11.56h-.09Z"/>
                <g id="Group_8132" data-name="Group 8132">
                  <g id="Group_8131" data-name="Group 8131">
                    <g class="cls-7">
                      <g id="Group_8130" data-name="Group 8130">
                        <path id="Path_4150" data-name="Path 4150" class="cls-5" d="m20.82,25.36c.65.09,1.29.15,1.91.27,1.3.2,2.54.68,3.64,1.4.87.54,1.47,1.41,1.68,2.41.15.72.05,1.47-.29,2.13-.24.49-.72.83-1.26.9-.1.01-.14.06-.14.15,0,.17,0,.35,0,.52-.02.65-.1,1.3-.24,1.93-.16.79-.42,1.57-.76,2.3-.23.5-.51.98-.82,1.43-.43.62-.96,1.17-1.57,1.63-.45.34-.95.61-1.48.8-.54.2-1.11.3-1.69.3-.93,0-1.84-.27-2.63-.76-1.01-.63-1.85-1.51-2.45-2.54-.35-.59-.64-1.21-.86-1.86-.23-.66-.39-1.35-.48-2.05-.06-.56-.08-1.12-.11-1.68,0-.09-.02-.15-.14-.16-.59-.07-1.09-.45-1.31-1-.64-1.43-.22-3.11,1.02-4.07.82-.66,1.76-1.14,2.77-1.43,1.22-.36,2.47-.56,3.74-.59.12,0,.14-.04.15-.14.08-1.32.42-2.6,1-3.79.05-.09.1-.17.15-.26.11-.21.33-.33.56-.33.62-.05,1.23.13,1.73.51.05.04.1.09.15.15.15.14.15.38,0,.53-.02.02-.03.03-.05.04-.64.6-1.2,1.28-1.67,2.03-.2.36-.36.74-.53,1.11-.02.05-.03.1-.05.15"/>
                      </g>
                    </g>
                  </g>
                </g>
              </g>
            </g>
          </g>
        </g>
      </g>
    </g>
  </g>
</svg>