<?xml version="1.0" encoding="UTF-8"?>
<svg id="Layer_2" data-name="Layer 2" xmlns="http://www.w3.org/2000/svg" viewBox="0 0 218.64 113.2">
  <defs>
    <style>
      .cls-1 {
        fill: #f6f2ed;
      }

      .cls-2 {
        fill: #f8f7f2;
      }

      .cls-3, .cls-4 {
        fill: #fff;
      }

      .cls-5 {
        fill: #fcb943;
      }

      .cls-6 {
        fill: #86261a;
      }

      .cls-7 {
        fill: #b6b2b3;
      }

      .cls-8 {
        fill: #a89e9e;
      }

      .cls-4 {
        stroke: #fff;
        stroke-miterlimit: 10;
        stroke-width: 10px;
      }
    </style>
  </defs>
  <g id="Layer_1-2" data-name="Layer 1">
    <g id="Layer_2-2" data-name="Layer 2">
      <g id="Layer_1-2" data-name="Layer 1-2">
        <g>
          <g id="Layer_2-2" data-name="Layer 2-2">
            <g id="Layer_1-2-2" data-name="Layer 1-2">
              <path class="cls-4" d="m147.46,35.51c-2.07-1.98-4.36-3.85-6.79-5.56-.32-.3-.59-.56-.82-.81-1.16-1.23-2.54-2.36-3.96-3.27,3.03-4.28,4.91-11.07,3.21-15.65-1.09-2.92-3.52-4.75-6.86-5.14-.28-.03-.55-.05-.83-.07-.08,0-.16,0-.23,0h-.08c-.17,0-.34,0-.51,0-.12,0-.25,0-.37.01-.14,0-.29.02-.43.03-.13.01-.27.03-.41.04-.12.01-.25.03-.37.05-.15.02-.29.04-.43.08-.1.02-.19.04-.31.07h-.05c-.14.04-.29.07-.42.1-.05,0-.09.02-.14.04-2.61.67-5.28,2.18-7.53,4.23-1.71,1.57-2.18,3.71-1.26,5.73.42.92,1.3,1.49,1.89,1.87.07.04.13.09.19.13.04.02.08.05.11.08.69.4,1.34.86,1.95,1.38.28.26.42.5.41.68,0,.12-.1.68-1.23,1.68-1.87-.42-3.82-.72-5.8-.86-10.87-.82-22.92,2.62-32.24,9.2-5.93,4.19-10.7,9.72-13.08,15.16-1.1,2.52-1.02,4.99.21,6.95.82,1.3,2.11,2.28,3.69,2.85-1.27,3.46-2.14,7.32-2.65,11.74-.65,5.7.26,11.35,2.79,17.27,1.27,3.62,3.09,7.02,5.3,10.19,2.09,3,5.22,5.77,7.76,8.5,2.35,2.54,5.16,4.9,8.62,5.69,2.35.53,4.8.29,7.19-.05,4.44-.64,8.82-1.6,13.1-2.89,4.36-1.31,7.99-3.53,11.75-5.98.49-.32,1.01-.67,1.6-1.09,3.81-1.84,6.75-5.12,9.34-8.03.29-.32.57-.64.85-.95,1.87-2.08,3.24-3.8,4.44-5.58.25-.37.54-.76.84-1.17.7-.95,1.47-1.99,2.01-3.16,3.29-.13,6.68-2.91,7.76-4.42,3.03-4.23,3.8-10.46,2.3-18.51-1.53-8.23-5.27-15.53-10.52-20.55h0s0,0,0,0Z"/>
            </g>
          </g>
          <g>
            <path class="cls-6" d="m145.13,36.28c-1.9-1.9-4.01-3.7-6.25-5.36-.3-.29-.54-.54-.75-.78-1.07-1.18-2.34-2.27-3.65-3.14,2.79-4.12,4.52-10.66,2.95-15.06-1-2.81-3.24-4.57-6.31-4.94-.25-.03-.5-.05-.76-.07-.07,0-.14,0-.21,0h-.07c-.16,0-.32,0-.47,0-.11,0-.23,0-.34.01-.13,0-.26.02-.4.03-.12.01-.25.03-.37.04-.11.01-.23.03-.34.05-.14.02-.27.04-.4.07-.09.02-.18.04-.29.06h-.04c-.13.04-.26.07-.39.1-.04,0-.08.02-.13.04-2.4.65-4.86,2.09-6.93,4.07-1.58,1.51-2.01,3.57-1.16,5.52.39.88,1.2,1.43,1.74,1.8.06.04.12.08.18.12.03.02.07.05.1.07.63.39,1.24.83,1.8,1.33.26.25.39.48.38.65,0,.11-.09.65-1.13,1.61-1.72-.41-3.52-.69-5.34-.83-10-.79-21.1,2.52-29.66,8.86-5.46,4.03-9.85,9.35-12.04,14.59-1.01,2.43-.94,4.8.19,6.69.75,1.25,1.94,2.19,3.4,2.75-1.17,3.33-1.97,7.05-2.43,11.3-.6,5.48.24,10.92,2.57,16.62,1.17,3.49,2.84,6.75,4.88,9.81,1.93,2.89,4.81,5.55,7.14,8.18,2.17,2.44,4.75,4.72,7.93,5.47,2.16.51,4.42.28,6.62-.05,4.08-.61,8.12-1.54,12.06-2.78,4.01-1.26,7.35-3.39,10.81-5.76.45-.31.92-.64,1.48-1.05,3.51-1.77,6.21-4.93,8.6-7.72.26-.31.52-.61.78-.92,1.72-2,2.98-3.65,4.08-5.37.23-.36.5-.73.77-1.12.65-.92,1.35-1.91,1.84-3.04,3.03-.13,6.15-2.8,7.14-4.26,2.79-4.07,3.5-10.06,2.12-17.81-1.41-7.92-4.85-14.94-9.68-19.77h0Z"/>
            <path class="cls-2" d="m103.44,30.09c-.35,1.18-1.22,1.59-2.23,1.9-5.71,1.74-11.02,4.26-14.91,9.57-1.02,1.4-2.17,1.57-3.37.38-1.19-1.18-.59-2.34.29-3.35,4.83-5.58,10.69-9.17,17.42-10.93,2.43-.64,3.52.4,2.81,2.42Z"/>
            <path class="cls-1" d="m110.6,30.21c-1.22-.54-2.9-.6-2.19-2.44.88-2.27,2.74-1.89,4.4-1.41,1.06.31,2.68.41,2.02,2.3-.88,2.51-2.78,1.67-4.23,1.54Z"/>
          </g>
          <g>
            <g>
              <path class="cls-7" d="m83.76,98.59c-.58,0-1.16-.05-1.73-.14-3.17-.44-4.52-2.49-5.04-3.7-.97-2.2-1.34-4.41-1.6-6.32,0-.02,0-.04,0-.06-.59-4.73-.61-9.76-.08-15.83.43-4.86.99-8.93,2.27-13.04,0-.02.01-.05.02-.07.09-.29.2-.58.32-.87.1-.27.2-.53.27-.75,0-.04.02-.08.04-.11.47-1.41,1.79-3.85,5.38-4.45.64-.11,1.27-.17,1.9-.17,2.71,0,5.25,1.04,7.56,3.1.04.04.08.08.12.11,1.71-.91,3.91-1.73,6.54-1.74h.21c4.6,0,8.17,2.61,9.56,6.98,0,.04.02.08.03.11.92,3.24.68,6.52-.76,10.02-1.01,2.53-2.55,4.8-4.67,6.9.56.53,1.15,1.01,1.77,1.39.06.04.12.07.18.11.15.1.34.22.45.29,1.51.54,3.33,1.78,4.09,4.65.02.08.04.16.06.24.33,1.63.21,3.24-.34,4.78,0,.01,0,.03-.02.05-1.21,3.26-4.23,5.37-7.7,5.37-.75,0-1.51-.1-2.26-.29-2.05-.49-3.88-1.49-5.75-3.17-.05-.04-.09-.08-.14-.12-.84,1.98-2.31,3.61-4.4,4.87-1.97,1.21-4.15,1.84-6.31,1.84h0Z"/>
              <path class="cls-7" d="m112.11,95.03c-4.21,0-7.63-3.34-7.63-7.45s3.42-7.51,7.63-7.51,7.69,3.37,7.69,7.51-3.45,7.45-7.69,7.45Z"/>
              <path class="cls-7" d="m133.85,95.26c-1.8,0-3.46-.65-4.8-1.89-1.95-1.77-2.77-3.87-3.38-5.7,0-.03-.02-.06-.03-.08-1.05-3.4-1.54-7.08-1.54-11.58v-.06c.08-5.48.77-9.64,2.24-13.5.01-.03.02-.07.04-.1.62-1.51,1.28-2.72,2.08-3.81.02-.03.05-.07.08-.1,2-2.55,4.36-3.09,5.99-3.09.75,0,1.53.12,2.31.34,2.98.8,5.07,2.83,5.75,5.49.37-.47.75-.92,1.14-1.37,0-.01.02-.02.03-.04,1.3-1.45,2.79-2.93,4.91-3.91,1.04-.51,2.23-.76,3.52-.76,3,0,6.85,1.5,8.23,4.8.04.09.08.18.1.28.42,1.26.32,2.29.21,2.96-.03.19-.08.38-.14.57-1.33,4.13-1.87,9.11-1.61,14.8.15,2.47.43,5.07,1.45,7.43.59,1.27.59,2.69.02,3.97-.86,2.08-2.29,3.48-4.27,4.19-1.47.54-3.24.84-4.99.84-.69,0-1.35-.05-1.98-.14-1.58-.18-3.76-.94-5.44-3.45-.79-1.17-1.3-2.36-1.66-3.55-.26.64-.51,1.27-.75,1.9,0,.02-.02.05-.03.07-.5,1.21-1.81,4.42-5.73,5.28-.01,0-.03,0-.04,0-.59.12-1.17.19-1.73.19h0Z"/>
              <path class="cls-7" d="m176.08,96.47c-2.58,0-5.11-.5-7.32-1.46-.02,0-.04-.01-.06-.02-3.46-1.56-6.23-4.68-8-9.04-1.35-3.31-2.11-7.34-2.15-11.34-.07-5,.43-9.13,1.63-13.36.37-1.38,1.17-3.03,1.81-4.06.05-.08.1-.16.15-.23,1.06-1.49,2.42-2.33,4.03-2.51.71-.08,1.36-.11,1.98-.11,2.93,0,5.41.89,7.37,2.66.05.05.1.1.16.15.2.2.38.4.54.59,1.13-1.1,2.5-1.93,4.19-2.52.02,0,.04-.01.07-.02,1.6-.53,3.08-.79,4.52-.79.35,0,.71.01,1.07.05,1.34.12,3.23.73,4.53,2.9.04.06.07.12.11.19,1.92,3.63,3,7.56,3.3,12.03,1.04,12.4-2.48,21.31-9.9,25.09-2.38,1.19-5.14,1.81-8.01,1.81h0Zm.56-21.26c.1.92.19,1.69.35,2.35.01-.18.02-.38.02-.58v-.15c.08-2.11-.05-4.23-.38-6.34-.13,1.43-.17,2.83-.05,4.17.02.18.04.36.06.55h0Z"/>
              <path class="cls-7" d="m207.63,95.16c-.15,0-.3,0-.45,0h-.04c-3.86-.16-7.32-1.97-10.28-5.4-2.86-3.28-3.99-7.16-4.66-10.17,0-.03-.01-.07-.02-.1-.34-1.78-.55-3.59-.62-5.37-.14-2.09-.12-4.18.05-6.31-.04-.02-.08-.05-.11-.07-.07-.04-.14-.09-.2-.14-1.4-1-2.26-2.5-2.35-4.1-.1-1.59.56-3.16,1.79-4.29,0,0,.02-.01.02-.02.88-.79,1.83-1.35,2.82-1.66.81-2.97,1.96-5.97,3.51-9.13,1.73-3.63,5.34-5.89,9.44-5.89.65,0,1.3.06,1.93.17.06,0,.12.02.18.04,3.18.74,5.45,2.31,6.95,4.78,0,.01.02.03.03.05,1.45,2.46,1.42,5.08-.08,7.37-.59.96-1.11,2.01-1.59,3.26.05.03.09.06.14.09.7.47,2.82,1.88,2.82,4.86,0,.15,0,.29-.02.44-.25,2.3-1.59,3.52-2.66,4.13-.15.08-.3.16-.46.23-.73.3-1.43.5-2.1.63-.17,2.4-.12,4.58.17,6.63h.13c1.15,0,1.99.45,2.31.62.32.16,1.25.62,1.97,1.62,3.48,4.51,3.11,10.82-.89,14.74-1.98,1.97-4.65,3.01-7.73,3.01h0Z"/>
            </g>
            <g>
              <path class="cls-7" d="m49.77,103.01c-.1,0-.2,0-.3,0-4.57-.17-7.14-1.92-9.59-4.11-.89-.09-2.32-.26-3.96-.97-1.82-.79-3.73-1.89-5.41-2.86l-.8-.46c-1-.58-1.46-.98-2.05-1.61-.09-.09-.19-.21-.34-.35-.19-.19-.36-.38-.52-.57-2-.03-3.6-.23-5.15-.66-.99-.27-1.91-.67-2.71-1.18-2.53-1.6-2.93-3.68-2.95-4.78-.02-1.1.33-3.21,2.84-4.91.44-.3.89-.54,1.33-.73-.08-.08-.16-.16-.24-.25-1.78-1.93-3-4.06-3.81-6.7-1.14-3.68-.39-7.97,1.91-10.95,1.59-2.06,4-2.38,5.3-2.55h.08c.79-.11,1.58-.17,2.35-.17,1.07,0,2.13.1,3.16.3,1.59.23,3.26.76,4.85,1.54,1.31.64,2.5,1.41,3.52,2.26,1.31-.65,2.71-1.01,3.99-1.01,2.12,0,3.89.95,4.85,2.6.52.9.74,1.88.67,2.86.63.48,1.14,1.09,1.49,1.81.86,1.79.58,3.93-.76,5.73-.84,1.12-2.04,2.08-3.48,2.78-.81.39-1.64.67-2.47.83-.08.2-.15.42-.23.66-.15.48-.19.88-.19,1.13.5.39,1.16.74,1.92,1.02.34.12,1.84.39,4.08.39,1.44,0,2.3-.12,2.59-.18,1.57-.39,2.96-1.14,4.02-2.18,2.13-2.1,2.75-4.25,2.14-7.41-.07-.35-.43-.88-.84-1.5-.2-.3-.43-.64-.66-1.01-.12-.2-.33-.53-.43-.65-.35-.28-.66-.55-.92-.79-.19-.18-.42-.38-.54-.47-.08-.04-.3-.13-.46-.2-.46-.19-1.04-.42-1.66-.8-3.35-2.06-5.72-5.59-6.51-9.67-.79-4.1.1-8.27,2.44-11.44,1.46-1.98,3.31-2.4,4.61-2.4.49,0,.99.06,1.54.18,1.79.39,3.43,1.03,4.9,1.91.33-.07.67-.11,1.01-.11,1.13,0,2.03.39,2.57.62l.14.06c.63.26,1.46.64,2.27,1.23,2.06,1.51,3.71,3.15,4.95,4.93,1.44.08,2.68.93,3.3,2.14.12.12.26.26.41.43.67.79,1.16,1.58,1.52,2.18.94,1.59,1.72,3.29,2.4,4.8l.15.33c1.17,2.57,1.85,5.11,2.05,7.55.16,1.95.07,3.79-.26,5.47-.5,2.58-1.84,5.13-2.79,6.84-1.9,3.37-4.17,6.91-7.92,9.94-3.21,2.6-6.88,4.43-11.52,5.75,0,1.27-.42,2.22-.78,2.8-1,1.62-2.82,2.56-5,2.56h-.01Z"/>
              <path class="cls-7" d="m75.16,69.97c-.17-2.12-.81-4.26-1.7-6.23-.71-1.56-1.45-3.23-2.34-4.74-.34-.58-.7-1.13-1.14-1.65-.24-.29-.9-.75-.9-1.17,0,2.18.08,4.05-.92,6.06.28-5.36-2.29-8.91-6.16-11.75-.43-.32-.93-.55-1.43-.76-.44-.18-.97-.46-1.38-.36-.59.15-.02.98-.52,1.41-1.68-1.78-3.69-2.82-6.04-3.33-.93-.2-1.53-.07-2.1.7-3.52,4.77-2.1,12.24,2.95,15.36.71.43,1.56.61,2.25,1.08.62.42,1.14,1,1.74,1.47.56.43.94,1.05,1.32,1.65.79,1.27,1.74,2.34,2.03,3.85.84,4.35-.09,7.88-3.25,11-1.62,1.6-3.66,2.68-5.86,3.21-2.01.5-7.04.38-8.98-.34-1.09-.4-2.17-.95-3.08-1.68-.33-.26-.72-.56-.93-.92-.76-1.27-.57-3.1-.15-4.45.18-.59.39-1.16.66-1.72.17-.35.35-.69.62-.96.21-.22.47-.38.72-.55.04-.02.08-.05.11-.08.75.06,1.7-.13,2.65-.59,1.76-.85,2.83-2.28,2.39-3.2s-2.23-.97-3.99-.12c-1.02.49-1.8,1.17-2.2,1.84-.74.57-1.77-.49-1.04-1.13.46-.4.99-.72,1.55-1.01.49-.13,1.01-.34,1.51-.64,1.69-.98,2.65-2.49,2.15-3.36-.51-.88-2.29-.8-3.99.17-.61.35-1.12.77-1.51,1.2-.37.23-.56.15-.77-.04-.81-1.29-2.38-2.63-4.39-3.61-1.3-.63-2.6-1.03-3.77-1.19-1.39-.28-2.82-.33-4.32-.12-.99.13-2.15.27-2.75,1.05-1.41,1.82-2.05,4.78-1.26,7.34.62,2,1.52,3.65,2.93,5.18.6.65,2.09,1.31,2.83,1.78.67.42.72,1.51.71,2.42,0,.28-.03.71-.19.95-.39.59-1.31.56-1.93.64-1.07.37-2.23.5-3.19,1.17-1.45.98-1.47,2.1.01,3.04.5.32,1.07.55,1.64.71,2.27.62,4.56.55,6.89.46-.05.08-.22.29-.25.44-.08.43.5,1.05.78,1.33.73.73.67.82,1.57,1.34,1.79,1.03,3.93,2.31,5.81,3.13,2.18.94,3.73.46,4.44,1.12,2.49,2.31,4.21,3.52,7.68,3.65,1.9.07,2.42-1.09,1.55-2.81-.4-.79-1.35-.89-1.51-1.87.53-.1,3.82-.25,4.32-.39,3.85-1.04,7.41-2.57,10.59-5.14,3.08-2.49,5.03-5.39,6.95-8.8.95-1.68,1.98-3.75,2.35-5.65.26-1.35.32-2.86.2-4.39h0Z"/>
              <circle class="cls-7" cx="28.33" cy="67.24" r="1.07"/>
            </g>
            <g id="vHPzLs.tif">
              <g>
                <path class="cls-7" d="m11.46,66c-1.59-.02-3.08-.45-4.43-1.27-1.45-.89-2.61-2.09-3.56-3.67-.46-.76-.84-1.6-1.14-2.47s-.49-1.68-.59-2.45c-.46-.47-.84-1.03-1.13-1.67-1.29-2.9-.49-6.26,1.99-8.36,1.07-.91,2.35-1.59,3.93-2.07.44-.14.9-.25,1.36-.35.19-.6.44-1.22.76-1.84.04-.08.08-.16.13-.24,0,0-.02.03-.03.06.73-1.43,2.14-2.35,3.77-2.47.16,0,.31-.01.45-.01,1.36,0,2.67.44,3.77,1.26.31.24.6.51.86.84.83,1.04,1.12,2.31.9,3.51.44.22.86.47,1.26.75,2.2,1.53,2.93,3.44,3.17,4.77.28,1.59.05,3.15-.67,4.5-.26.49-.59.93-.96,1.32-.04.27-.09.54-.15.82-.22,1.04-.55,2.05-.99,2.98-.33.69-.68,1.31-1.09,1.9-.65.92-1.42,1.72-2.29,2.38-.73.55-1.54.99-2.4,1.29-.94.34-1.9.5-2.84.5h-.09Z"/>
                <path class="cls-7" d="m12.04,47.28c.59.08,1.17.14,1.75.25,1.2.22,2.34.59,3.33,1.28.81.57,1.37,1.27,1.53,2.19.12.67.07,1.32-.26,1.94-.23.43-.59.74-1.15.82-.09.01-.13.05-.13.14v.48c-.02.59-.09,1.18-.22,1.76-.15.72-.38,1.42-.69,2.1-.21.45-.46.89-.75,1.3-.39.56-.86,1.06-1.42,1.49-.41.31-.85.55-1.35.73-.5.18-1.01.28-1.54.27-.88,0-1.68-.25-2.4-.69-.98-.59-1.68-1.4-2.23-2.32-.33-.54-.58-1.11-.78-1.7-.21-.61-.37-1.24-.43-1.87-.05-.51-.07-1.02-.1-1.53,0-.08-.02-.13-.13-.15-.6-.08-.98-.43-1.19-.91-.54-1.22-.3-2.68.92-3.71.73-.61,1.59-1.01,2.52-1.3,1.1-.34,2.25-.5,3.42-.54.11,0,.13-.04.14-.13.12-1.19.33-2.36.92-3.46.04-.08.09-.16.14-.24.1-.2.28-.29.51-.31.59-.04,1.12.13,1.58.47.05.04.09.08.13.13.15.19.14.35-.04.52-.58.58-1.13,1.17-1.52,1.85-.19.33-.33.67-.49,1.01-.02.05-.03.1-.04.13h0Z"/>
              </g>
            </g>
            <path class="cls-8" d="m90.55,62.57c.99-.81,1.86-1.55,2.91-2.23,1.86-1.24,3.84-2.17,6.2-2.17,2.97-.06,5.08,1.49,5.95,4.21.75,2.6.37,5.02-.62,7.44-1.24,3.1-3.41,5.52-6.07,7.56-.43.31-.43.56-.12.93,1.42,1.8,2.97,3.53,4.95,4.71.37.25.75.5,1.17.68,1.05.31,1.49,1.05,1.74,1.98.18.93.12,1.8-.18,2.67-.81,2.17-2.97,3.22-5.27,2.6-1.61-.37-2.91-1.24-4.09-2.29-2.35-2.04-4.21-4.4-5.52-7.12-.12-.31-.31-.43-.68-.37-.5.12-.99.18-1.55.18-.25,0-.37.06-.37.37.31,2.23.68,4.46,1.92,6.45.18.31.12.62.06.93-.43,1.74-1.55,2.97-3.1,3.9-1.61.99-3.47,1.49-5.39,1.17-.93-.12-1.61-.5-1.98-1.36-.75-1.68-1.05-3.47-1.3-5.27-.62-5.02-.5-10.04-.06-14.99.37-4.15.87-8.24,2.1-12.21.18-.56.43-1.11.62-1.74.37-1.11,1.17-1.61,2.29-1.8,2.42-.43,4.4.43,6.13,1.98.62.62.87,1.42.62,2.29l-.37,1.49h0Zm-1.49,14.14c.12-.06.25-.12.37-.25,2.23-1.36,3.96-3.16,5.14-5.45.37-.75.62-1.49.68-2.35.12-1.61-1.05-2.6-2.67-2.35-.87.12-1.68.5-2.48.87-.43.25-.62.56-.68.99l-.43,3.96c-.18,1.49-.25,3.03-.18,4.65.12-.06.18-.06.25-.06h0Z"/>
            <path class="cls-8" d="m111.41,83.73c2.04,0,3.72,1.61,3.72,3.53s-1.68,3.47-3.72,3.47-3.66-1.55-3.66-3.47,1.61-3.53,3.66-3.53Z"/>
            <path class="cls-8" d="m145.45,73.03c-1.55,2.29-2.79,4.71-3.9,7.12-1.24,2.67-2.42,5.39-3.47,8.12-.56,1.36-1.24,2.54-2.91,2.91-1.17.25-2.17.06-3.03-.75-1.24-1.11-1.8-2.54-2.29-4.03-1.05-3.41-1.36-6.87-1.36-10.41.06-4.15.5-8.24,1.98-12.14.43-1.05.93-2.04,1.61-2.97,1.11-1.42,2.48-1.86,4.09-1.36,1.92.5,3.03,1.8,3.1,3.47.06,4.03-.18,7.99-.37,12.02,0,.31,0,.68-.06,1.11.31-.25.31-.5.43-.68,2.04-4.65,4.46-9.11,7.87-13.01,1.05-1.17,2.17-2.29,3.66-2.97,1.98-.99,5.58.06,6.38,1.98.12.37.12.68.06,1.05-1.67,5.2-2.04,10.84-1.8,16.23.18,3.03.56,6.01,1.8,8.86.12.25.12.5,0,.75-.37.93-.93,1.68-1.98,2.04-1.49.56-3.53.75-5.08.5-1.24-.12-2.04-.81-2.67-1.74-1.05-1.55-1.42-3.35-1.74-5.08-.62-3.47-.68-7.25-.31-10.78v-.25h0Z"/>
            <path class="cls-8" d="m182.3,91.45c-3.6,1.8-8.37,1.8-11.96.25-5.52-2.48-7.74-10.35-7.8-16.79-.06-4.34.31-8.12,1.49-12.27.25-.93.87-2.23,1.36-3.03.31-.43.68-.81,1.24-.87,2.29-.25,4.46-.06,6.26,1.55.75.75,1.11,1.55.93,2.6-.68,4.09-1.55,8.37-1.17,12.51.25,2.17.37,5.02,2.54,7.25,1.55,1.24,4.02.56,4.89-1.17.68-1.3.93-2.73.93-4.15.18-5.08-.68-10.04-2.48-14.81-.25-.68.06-1.11.43-1.55.81-.81,1.74-1.3,2.79-1.68,1.3-.43,2.6-.68,3.96-.56.68.06,1.11.37,1.49.99,1.74,3.28,2.6,6.75,2.85,10.47.68,8.05-.56,17.59-7.74,21.25h0Z"/>
            <path class="cls-8" d="m212.24,89.64c-1.42,1.42-3.28,1.92-5.27,1.86-3.03-.12-5.45-1.74-7.44-4.02-2.1-2.42-3.1-5.33-3.78-8.43-.31-1.61-.5-3.22-.56-4.83-.18-2.79-.06-5.52.31-8.24.12-.5,0-.75-.56-.75-.62.06-1.17-.25-1.67-.56-.87-.62-.93-1.55-.18-2.23.62-.56,1.3-.93,2.1-.93.99-.06,1.36-.62,1.61-1.55.81-3.35,2.04-6.51,3.53-9.54,1.49-3.16,4.71-3.96,7.06-3.53,1.86.43,3.41,1.24,4.46,2.97.62,1.05.75,2.1,0,3.22-1.42,2.29-2.35,4.83-3.1,7.44-.12.37,0,.5.37.56.81.18,1.67.37,2.42.81.56.37,1.05.75,1.05,1.55-.06.56-.25.87-.68,1.11-1.05.43-2.1.56-3.16.62-.66.08-1.05.45-1.17,1.11-.5,4.15-.5,8.3.5,12.45.18.75.37,1.55.75,2.29.43.75,1.17.99,1.86.5.37-.25.5-.68.43-1.17-.06-.31,0-.62.25-.81.31-.18.56,0,.81.12s.43.25.56.43c2.29,2.91,2.1,7-.5,9.54Z"/>
          </g>
          <g>
            <g>
              <path class="cls-3" d="m83.29,95.78c-.56,0-1.13-.04-1.68-.13-3.1-.43-4.41-2.43-4.92-3.61-.95-2.15-1.3-4.31-1.56-6.17,0-.02,0-.04,0-.06-.57-4.61-.59-9.52-.08-15.45.42-4.74.96-8.72,2.22-12.73,0-.02.01-.05.02-.07.09-.28.2-.56.31-.84.1-.27.2-.52.26-.74,0-.04.02-.08.03-.11.46-1.37,1.75-3.76,5.26-4.35.62-.11,1.25-.17,1.85-.17,2.64,0,5.12,1.02,7.37,3.03.04.04.08.07.12.11,1.67-.89,3.82-1.69,6.39-1.7h.21c4.49,0,7.97,2.55,9.33,6.82,0,.04.02.08.03.11.9,3.16.66,6.36-.74,9.78-.99,2.47-2.49,4.69-4.55,6.74.54.52,1.12.99,1.73,1.35.06.03.12.07.17.11.15.1.33.22.44.28,1.48.52,3.25,1.74,3.99,4.54.02.08.04.16.06.24.32,1.59.21,3.16-.33,4.67,0,.01,0,.03-.02.05-1.18,3.18-4.13,5.24-7.51,5.24-.73,0-1.47-.09-2.2-.29-2-.47-3.78-1.46-5.61-3.09-.04-.04-.09-.08-.13-.12-.82,1.93-2.26,3.53-4.29,4.76-1.93,1.18-4.05,1.8-6.16,1.8h0Z"/>
              <path class="cls-3" d="m110.96,92.3c-4.1,0-7.45-3.26-7.45-7.27s3.34-7.33,7.45-7.33,7.51,3.28,7.51,7.33-3.37,7.27-7.51,7.27Z"/>
              <path class="cls-3" d="m132.18,92.52c-1.76,0-3.38-.64-4.69-1.84-1.91-1.73-2.7-3.78-3.3-5.57,0-.03-.02-.06-.03-.08-1.02-3.32-1.51-6.91-1.51-11.31v-.06c.08-5.35.75-9.41,2.19-13.17.01-.03.02-.07.04-.1.61-1.48,1.26-2.66,2.03-3.72.02-.03.05-.07.08-.1,1.95-2.49,4.26-3.01,5.85-3.01.74,0,1.5.11,2.25.34,2.91.78,4.94,2.76,5.61,5.36.36-.46.74-.9,1.11-1.34,0-.01.02-.02.03-.04,1.27-1.42,2.72-2.86,4.79-3.82,1.02-.5,2.18-.75,3.44-.75,2.93,0,6.69,1.47,8.04,4.69.04.09.07.18.1.27.41,1.24.32,2.24.21,2.89-.03.19-.08.37-.13.55-1.3,4.03-1.83,8.89-1.57,14.45.15,2.41.42,4.95,1.42,7.26.57,1.24.58,2.63.02,3.87-.84,2.02-2.24,3.4-4.16,4.09-1.43.53-3.16.83-4.86.83-.67,0-1.32-.05-1.93-.14-1.54-.18-3.67-.92-5.31-3.37-.77-1.14-1.26-2.31-1.62-3.47-.25.63-.5,1.25-.74,1.85,0,.02-.02.05-.03.07-.48,1.18-1.76,4.31-5.59,5.16-.01,0-.03,0-.04,0-.58.12-1.15.18-1.69.18h0Z"/>
              <path class="cls-3" d="m173.4,93.71c-2.51,0-4.99-.49-7.14-1.42-.02,0-.04-.01-.06-.02-3.38-1.52-6.08-4.57-7.81-8.82-1.32-3.24-2.06-7.17-2.1-11.07-.07-4.88.42-8.91,1.59-13.04.36-1.35,1.15-2.96,1.76-3.96.05-.08.09-.15.15-.22,1.03-1.45,2.36-2.27,3.94-2.45.7-.08,1.33-.11,1.93-.11,2.86,0,5.28.87,7.2,2.59.05.05.1.09.16.15.19.19.37.39.53.58,1.1-1.08,2.44-1.88,4.09-2.46.02,0,.04-.01.07-.02,1.56-.52,3.01-.77,4.41-.77.35,0,.7.01,1.04.05,1.32.12,3.15.71,4.43,2.84.04.06.07.12.1.18,1.87,3.54,2.93,7.38,3.22,11.74,1.01,12.11-2.42,20.8-9.67,24.49-2.32,1.16-5.02,1.77-7.82,1.77h0Zm.55-20.74c.09.9.19,1.65.34,2.29.01-.18.02-.37.02-.56v-.14c.08-2.06-.05-4.13-.37-6.19-.13,1.39-.17,2.76-.05,4.07.02.17.04.35.06.53h0Z"/>
              <path class="cls-3" d="m204.19,92.43c-.15,0-.29,0-.44,0h-.04c-3.77-.16-7.14-1.93-10.03-5.27-2.79-3.2-3.9-6.99-4.54-9.93,0-.03-.01-.07-.02-.1-.33-1.74-.54-3.5-.61-5.25-.13-2.04-.12-4.08.05-6.16-.04-.02-.08-.05-.11-.07-.07-.04-.13-.08-.2-.13-1.36-.98-2.2-2.43-2.3-4.01-.09-1.55.54-3.08,1.75-4.19,0,0,.01-.01.02-.02.86-.77,1.78-1.32,2.76-1.62.79-2.9,1.91-5.83,3.42-8.91,1.68-3.55,5.21-5.75,9.21-5.75.64,0,1.27.06,1.88.17.06,0,.12.02.18.04,3.1.72,5.32,2.25,6.79,4.67,0,.01.02.03.03.05,1.42,2.41,1.39,4.96-.08,7.2-.58.93-1.09,1.97-1.56,3.18.05.03.09.06.14.08.68.45,2.76,1.84,2.76,4.74,0,.14,0,.28-.02.43-.25,2.25-1.55,3.43-2.6,4.03-.15.08-.29.16-.45.22-.71.29-1.4.49-2.06.62-.17,2.35-.11,4.47.17,6.47h.12c1.12,0,1.94.44,2.26.6.31.16,1.22.61,1.93,1.58,3.4,4.4,3.03,10.56-.87,14.39-1.93,1.92-4.54,2.94-7.55,2.94h0Z"/>
            </g>
            <g>
              <path class="cls-3" d="m50.11,100.09c-.09,0-.19,0-.29,0-4.46-.16-6.97-1.87-9.36-4.02-.86-.09-2.26-.25-3.87-.95-1.78-.77-3.64-1.84-5.28-2.8l-.78-.45c-.98-.56-1.42-.95-2-1.57-.08-.09-.19-.2-.34-.34-.18-.18-.35-.37-.51-.55-1.95-.02-3.52-.23-5.03-.64-.97-.26-1.86-.66-2.65-1.16-2.47-1.56-2.86-3.6-2.88-4.67-.02-1.08.32-3.13,2.76-4.79.43-.29.87-.52,1.29-.71-.08-.08-.16-.16-.23-.24-1.74-1.88-2.93-3.96-3.72-6.53-1.11-3.59-.38-7.78,1.86-10.68,1.55-2.01,3.91-2.33,5.17-2.49h.07c.77-.11,1.54-.17,2.3-.17,1.04,0,2.08.1,3.09.29,1.55.23,3.18.75,4.73,1.5,1.28.62,2.43,1.37,3.43,2.21,1.28-.64,2.64-.98,3.89-.98,2.08,0,3.8.92,4.73,2.54.51.88.72,1.84.66,2.79.61.46,1.11,1.06,1.45,1.77.84,1.75.57,3.84-.74,5.59-.82,1.09-1.99,2.03-3.39,2.71-.79.38-1.6.66-2.41.81-.08.2-.15.41-.22.65-.14.47-.18.86-.19,1.1.49.38,1.13.73,1.87,1,.33.12,1.79.38,3.98.38,1.41,0,2.25-.11,2.52-.18,1.53-.38,2.89-1.11,3.92-2.13,2.08-2.05,2.68-4.15,2.09-7.23-.07-.34-.42-.86-.82-1.46-.2-.29-.42-.62-.65-.98-.12-.19-.32-.51-.42-.63-.34-.27-.64-.54-.9-.77-.19-.17-.41-.37-.52-.45-.08-.04-.29-.13-.45-.19-.45-.18-1.02-.41-1.62-.78-3.27-2.01-5.58-5.45-6.36-9.44-.77-4,.09-8.07,2.38-11.16,1.43-1.93,3.23-2.34,4.5-2.34.48,0,.97.06,1.5.17,1.75.38,3.35,1.01,4.78,1.87.32-.07.65-.1.98-.1,1.1,0,1.98.38,2.51.6l.14.06c.61.25,1.42.62,2.21,1.2,2.01,1.48,3.62,3.08,4.83,4.81,1.41.08,2.61.91,3.22,2.09.12.12.26.26.4.42.65.77,1.14,1.54,1.48,2.13.92,1.55,1.68,3.21,2.34,4.68l.14.32c1.14,2.51,1.81,4.98,2,7.37.15,1.9.07,3.7-.25,5.34-.49,2.51-1.79,5.01-2.73,6.67-1.85,3.29-4.07,6.74-7.73,9.7-3.14,2.54-6.72,4.33-11.24,5.61,0,1.24-.41,2.17-.76,2.73-.98,1.59-2.76,2.5-4.88,2.5h0Z"/>
              <path class="cls-5" d="m74.89,67.85c-.17-2.07-.79-4.15-1.66-6.08-.69-1.52-1.41-3.15-2.29-4.62-.34-.57-.69-1.1-1.11-1.61-.24-.28-.88-.74-.88-1.14,0,2.12.08,3.96-.89,5.92.27-5.24-2.24-8.7-6.01-11.47-.42-.31-.91-.54-1.4-.74-.43-.18-.95-.45-1.35-.35-.57.14-.02.95-.5,1.37-1.63-1.73-3.61-2.75-5.9-3.25-.91-.2-1.49-.07-2.05.68-3.44,4.66-2.05,11.95,2.88,14.99.69.42,1.52.59,2.19,1.05.6.41,1.11.98,1.7,1.43.54.42.92,1.02,1.28,1.6.77,1.25,1.7,2.28,1.99,3.75.83,4.24-.08,7.7-3.17,10.73-1.58,1.56-3.57,2.61-5.72,3.14-1.96.48-6.87.37-8.76-.33-1.06-.39-2.11-.93-3-1.64-.32-.25-.7-.54-.91-.9-.75-1.24-.56-3.02-.15-4.35.17-.57.38-1.14.64-1.68.16-.34.34-.67.61-.94.21-.21.46-.37.71-.54.04-.02.07-.05.11-.08.73.06,1.66-.13,2.59-.58,1.72-.83,2.76-2.23,2.33-3.12-.43-.9-2.18-.95-3.89-.12-1,.48-1.76,1.15-2.15,1.8-.72.55-1.73-.48-1.01-1.1.45-.39.97-.7,1.51-.99.48-.13.98-.33,1.48-.62,1.65-.95,2.59-2.43,2.09-3.28-.5-.86-2.24-.78-3.89.17-.59.34-1.09.75-1.47,1.17-.36.22-.54.14-.75-.03-.79-1.26-2.32-2.57-4.28-3.52-1.27-.62-2.54-1.01-3.68-1.16-1.35-.27-2.76-.32-4.22-.12-.96.13-2.09.26-2.68,1.03-1.37,1.77-2,4.67-1.23,7.16.61,1.95,1.49,3.56,2.86,5.05.59.63,2.03,1.28,2.76,1.74.66.42.7,1.48.69,2.36,0,.27-.03.69-.18.93-.38.57-1.28.55-1.88.63-1.05.36-2.17.49-3.12,1.14-1.42.96-1.43,2.06.01,2.97.49.31,1.04.54,1.6.69,2.22.61,4.45.53,6.73.45-.05.08-.21.28-.24.43-.08.42.49,1.02.76,1.3.71.71.66.8,1.53,1.3,1.75,1.01,3.83,2.26,5.68,3.05,2.12.92,3.64.45,4.34,1.09,2.43,2.26,4.11,3.43,7.49,3.56,1.85.07,2.36-1.06,1.51-2.74-.39-.77-1.32-.87-1.47-1.83.51-.1,3.73-.25,4.22-.38,3.76-1.02,7.23-2.51,10.33-5.02,3-2.43,4.91-5.26,6.78-8.59.92-1.64,1.93-3.66,2.3-5.52.26-1.32.32-2.8.2-4.29h-.01Z"/>
              <circle class="cls-5" cx="29.19" cy="65.17" r="1.05"/>
            </g>
            <g id="vHPzLs.tif-2">
              <g>
                <path class="cls-3" d="m12.72,63.97c-1.55-.01-3-.43-4.33-1.25-1.42-.87-2.55-2.04-3.48-3.58-.45-.75-.82-1.56-1.11-2.42-.29-.85-.48-1.64-.58-2.4-.45-.46-.83-1.01-1.1-1.63-1.26-2.83-.48-6.11,1.94-8.16,1.05-.89,2.3-1.54,3.83-2.01.43-.13.87-.25,1.33-.34.18-.59.42-1.19.75-1.79.04-.08.08-.16.13-.23,0,0-.02.03-.03.06.72-1.4,2.09-2.3,3.69-2.41.16,0,.3-.01.44-.01,1.33,0,2.6.42,3.69,1.23.31.23.59.5.84.82.81,1.01,1.09,2.26.88,3.43.43.22.84.46,1.22.73,2.15,1.5,2.86,3.35,3.1,4.65.27,1.56.05,3.08-.65,4.39-.25.48-.57.91-.94,1.28-.04.26-.09.53-.14.8-.21,1.02-.54,2-.97,2.91-.32.67-.67,1.28-1.07,1.85-.63.9-1.39,1.68-2.24,2.32-.72.54-1.51.96-2.34,1.26-.92.33-1.85.5-2.77.5h-.08Z"/>
                <path class="cls-5" d="m13.29,45.7c.58.08,1.15.14,1.7.24,1.17.21,2.29.58,3.25,1.25.79.55,1.34,1.25,1.5,2.14.11.65.07,1.29-.25,1.9-.23.42-.58.72-1.12.8-.09.01-.12.05-.12.13v.46c-.02.58-.09,1.15-.21,1.72-.15.7-.37,1.39-.68,2.05-.21.44-.45.86-.73,1.27-.38.55-.84,1.03-1.39,1.45-.4.3-.83.54-1.32.71s-.99.27-1.51.27c-.85,0-1.64-.24-2.34-.67-.95-.58-1.64-1.37-2.18-2.26-.32-.53-.57-1.09-.76-1.66-.2-.6-.36-1.2-.42-1.83-.05-.5-.07-1-.1-1.5,0-.08-.02-.13-.12-.15-.59-.08-.95-.42-1.17-.89-.53-1.18-.3-2.61.91-3.62.71-.6,1.55-.99,2.46-1.27,1.08-.33,2.19-.49,3.33-.52.11,0,.13-.04.13-.12.11-1.17.33-2.31.89-3.37.04-.08.09-.16.13-.24.1-.19.28-.28.5-.3.58-.04,1.09.12,1.54.46.05.04.09.08.13.13.15.18.13.34-.04.51-.56.56-1.1,1.14-1.49,1.81-.18.32-.32.66-.48.99-.02.05-.03.09-.04.13h0Z"/>
              </g>
            </g>
            <path class="cls-5" d="m89.91,60.62c.97-.79,1.81-1.51,2.84-2.18,1.81-1.21,3.75-2.12,6.05-2.12,2.9-.06,4.96,1.45,5.8,4.11.73,2.54.36,4.9-.6,7.26-1.21,3.02-3.33,5.38-5.93,7.37-.42.3-.42.54-.12.91,1.39,1.76,2.9,3.44,4.84,4.6.36.24.73.49,1.15.67,1.03.3,1.45,1.03,1.69,1.93.18.91.12,1.76-.18,2.6-.79,2.12-2.9,3.14-5.14,2.54-1.57-.36-2.84-1.21-3.99-2.24-2.3-2-4.11-4.29-5.38-6.95-.12-.3-.3-.42-.67-.36-.49.12-.97.18-1.51.18-.24,0-.36.06-.36.36.3,2.18.67,4.36,1.87,6.29.18.3.12.6.06.91-.42,1.69-1.51,2.9-3.02,3.81-1.57.97-3.39,1.45-5.26,1.15-.91-.12-1.57-.49-1.93-1.33-.73-1.63-1.03-3.39-1.27-5.14-.6-4.9-.48-9.8-.06-14.63.36-4.05.84-8.04,2.06-11.91.18-.54.42-1.09.6-1.69.36-1.09,1.15-1.57,2.24-1.76,2.36-.42,4.29.42,5.99,1.93.6.6.84,1.39.6,2.24l-.36,1.45h0Zm-1.45,13.8c.12-.06.24-.12.36-.24,2.18-1.33,3.87-3.09,5.02-5.32.36-.73.6-1.45.67-2.3.12-1.57-1.03-2.54-2.6-2.3-.84.12-1.63.48-2.42.84-.42.24-.6.54-.67.97l-.42,3.87c-.18,1.45-.24,2.96-.18,4.53.12-.06.18-.06.24-.06h0Z"/>
            <path class="cls-5" d="m110.28,81.27c2,0,3.63,1.57,3.63,3.44s-1.63,3.39-3.63,3.39-3.57-1.51-3.57-3.39,1.57-3.44,3.57-3.44Z"/>
            <path class="cls-5" d="m143.5,70.83c-1.51,2.24-2.72,4.6-3.81,6.95-1.21,2.6-2.36,5.26-3.39,7.92-.54,1.33-1.21,2.48-2.84,2.84-1.15.24-2.12.06-2.96-.73-1.21-1.09-1.76-2.48-2.24-3.93-1.03-3.33-1.33-6.71-1.33-10.16.06-4.05.49-8.04,1.93-11.85.42-1.03.91-2,1.57-2.9,1.09-1.39,2.42-1.81,3.99-1.33,1.87.48,2.96,1.76,3.02,3.39.06,3.93-.18,7.8-.36,11.73,0,.3,0,.67-.06,1.09.3-.24.3-.49.42-.67,2-4.53,4.36-8.89,7.68-12.7,1.03-1.15,2.12-2.24,3.57-2.9,1.93-.97,5.44.06,6.23,1.93.12.36.12.67.06,1.03-1.63,5.08-2,10.58-1.76,15.84.18,2.96.54,5.86,1.76,8.65.12.24.12.48,0,.73-.36.91-.91,1.63-1.93,2-1.45.54-3.45.73-4.96.49-1.21-.12-2-.79-2.6-1.69-1.03-1.51-1.39-3.27-1.69-4.96-.6-3.39-.67-7.07-.3-10.52v-.24h0Z"/>
            <path class="cls-5" d="m179.46,88.8c-3.51,1.76-8.16,1.76-11.67.24-5.38-2.42-7.56-10.1-7.62-16.39-.06-4.23.3-7.92,1.45-11.98.24-.91.84-2.18,1.33-2.96.3-.42.67-.79,1.21-.84,2.24-.24,4.36-.06,6.11,1.51.73.73,1.09,1.51.91,2.54-.67,3.99-1.51,8.16-1.15,12.22.24,2.12.36,4.9,2.48,7.07,1.51,1.21,3.93.54,4.77-1.15.67-1.27.91-2.66.91-4.05.18-4.96-.67-9.8-2.42-14.45-.24-.67.06-1.09.42-1.51.79-.79,1.69-1.27,2.72-1.63,1.27-.42,2.54-.67,3.87-.54.67.06,1.09.36,1.45.97,1.69,3.2,2.54,6.59,2.78,10.22.67,7.86-.54,17.17-7.56,20.74h0Z"/>
            <path class="cls-5" d="m208.68,87.04c-1.39,1.39-3.2,1.87-5.14,1.81-2.96-.12-5.32-1.69-7.26-3.93-2.06-2.36-3.02-5.2-3.69-8.22-.3-1.57-.48-3.14-.54-4.72-.18-2.72-.06-5.38.3-8.04.12-.49,0-.73-.54-.73-.6.06-1.15-.24-1.63-.54-.84-.6-.91-1.51-.18-2.18.6-.54,1.27-.91,2.06-.91.97-.06,1.33-.6,1.57-1.51.79-3.27,2-6.35,3.44-9.31,1.45-3.09,4.6-3.87,6.89-3.44,1.81.42,3.33,1.21,4.36,2.9.6,1.03.73,2.06,0,3.14-1.39,2.24-2.3,4.72-3.02,7.26-.12.36,0,.49.36.54.79.18,1.63.36,2.36.79.54.36,1.03.73,1.03,1.51-.06.54-.24.84-.67,1.09-1.03.42-2.06.54-3.09.6-.64.08-1.03.45-1.15,1.09-.48,4.05-.48,8.1.49,12.15.18.73.36,1.51.73,2.24.42.73,1.15.97,1.81.49.36-.24.49-.67.42-1.15-.06-.3,0-.6.24-.79.3-.18.54,0,.79.12s.42.24.54.42c2.24,2.84,2.06,6.83-.48,9.31h0Z"/>
          </g>
        </g>
      </g>
    </g>
  </g>
</svg>