<?xml version="1.0" encoding="UTF-8"?>
<svg id="Capa_2" data-name="Capa 2" xmlns="http://www.w3.org/2000/svg" viewBox="0 0 139.06 137.16">
  <defs>
    <style>
      .cls-1 {
        fill: #fff;
      }

      .cls-2 {
        fill: #993320;
      }

      .cls-3 {
        fill: #d15627;
      }
    </style>
  </defs>
  <g id="Layer_1" data-name="Layer 1">
    <g>
      <circle class="cls-2" cx="72.88" cy="70.99" r="66.17"/>
      <circle class="cls-3" cx="63.48" cy="63.48" r="63.48"/>
    </g>
    <g id="Asbj3u.tif">
      <g>
        <path class="cls-1" d="m50.42,93.21c-2.93.49-5.27,1.46-6.75,3.84-.4.65-.87.75-1.53.75-4.79-.02-9.59-.06-14.38-.01-1.17.01-1.33-.36-1.02-1.38.7-2.28,2.27-3.29,5.93-3.56-3.4-4.85-1.85-10.28-2.27-15.5.73-.07.94.4,1.26.66,4.77,3.87,10.14,5.11,16.15,3.9,1.92-.39,2.87-1.33,2.76-3.36-1.88.34-3.77.75-5.68,1.02-3.94.55-5.6-1.42-4.51-5.27.97-3.42,3.46-5.74,5.93-8.04,2-1.87,2.05-1.87.15-3.94-1.18-1.28-2.34-3.23-3.74-3.47-1.35-.22-2.45,1.99-3.64,3.15-3.97,3.84-7.89,7.74-11.82,11.61-1.23,1.21-1.43,1.19-2.12-.43-.9-2.12-.57-4.07.94-5.81.18-.21.4-.4.6-.6.84-.84,1.99-1.54,2.43-2.55.56-1.29-1.26-1.61-1.73-2.64-.61-1.36-1.12-2.69-1.15-4.19-.02-.84.1-1.75,1.16-1.67.87.06,2.02.07,2.01,1.51,0,1.28.44,2.41,1.32,3.38.73.8,1.35,1.04,2.17.05.75-.91,1.62-1.73,2.52-2.5.8-.68.55-.96-.23-1.39-2.95-1.65-5.11-3.99-6.23-7.25-.66-1.92-.41-3.56.84-5.2,4.31-5.65,10.17-7.53,16.98-7.09,1.19.08,1.99-.12,2.79-1.01,1.1-1.23,2.49-2.06,4.07-2.62,1.3-.46,2.15-.06,2.89.98,1.67,2.35,1.86,4.93,1.07,7.58-1.31,4.37-1.1,8.79-.69,13.24.08.9.47,1.5,1.17,2.09,3.85,3.25,6.03,7.35,6.12,12.46.01.75.05,1.65-.43,2.11-1.49,1.42-.38,2.19.54,3.11.88.89,1.46,1.99,1.91,3.15,1.02,2.62,1.91,5.29,2.62,8.02.8,3.07.84,6.01-1.43,8.69,6.76-1.78,10.11-8.21,7.72-14.62-1.59-4.25-4.1-8-6.56-11.77-2.62-4.01-5.26-7.98-7.12-12.43-4.97-11.92,1.21-25.26,10.48-31.46,6.05-4.05,12.62-6.01,19.87-4.47,8.75,1.86,13.53,7.96,16.29,16,.46,1.33.73,2.72,1.09,4.08.2.76.16,1.12-.86.93-2.29-.41-4.61-.37-6.86.31-4.5,1.37-7.01,5.11-7.08,10.72-.06,4.51,1.13,8.79,2.45,13.06,1.65,5.33,2.47,10.78,1.57,16.33-1.05,6.5-4.81,10.87-10.96,13.22-5.66,2.17-11.6,2.83-17.58,2.94-7.04.12-14.09-.08-21.14-.1-1.07,0-1.21-.33-.94-1.3.4-1.39,1.36-2.28,2.65-3.27Z"/>
        <path class="cls-1" d="m44.32,43.9c-.03,1.2-1.08,2.22-2.2,2.09-1.21-.14-1.91-.89-1.95-2.11-.04-1.13,1.09-2.17,2.19-2.04,1.21.14,1.87.89,1.96,2.06Z"/>
      </g>
    </g>
  </g>
</svg>