<?xml version="1.0" encoding="UTF-8"?>
<svg id="Layer_2" data-name="Layer 2" xmlns="http://www.w3.org/2000/svg" xmlns:xlink="http://www.w3.org/1999/xlink" viewBox="0 0 233.01 308.72">
  <defs>
    <style>
      .cls-1 {
        fill: none;
      }

      .cls-2 {
        clip-path: url(#clippath);
      }

      .cls-3 {
        fill: #fff;
      }

      .cls-4 {
        fill: #a8a4a4;
      }

      .cls-5 {
        fill: #731813;
      }

      .cls-6 {
        clip-path: url(#clippath-1);
      }

      .cls-7 {
        clip-path: url(#clippath-4);
      }

      .cls-8 {
        clip-path: url(#clippath-3);
      }

      .cls-9 {
        clip-path: url(#clippath-2);
      }
    </style>
    <clipPath id="clippath">
      <rect class="cls-1" width="233.01" height="308.72"/>
    </clipPath>
    <clipPath id="clippath-1">
      <rect class="cls-1" x="69.54" y="76.7" width="98.5" height="82.55"/>
    </clipPath>
    <clipPath id="clippath-2">
      <rect class="cls-1" x="69.54" y="76.7" width="98.5" height="82.55"/>
    </clipPath>
    <clipPath id="clippath-3">
      <rect class="cls-1" x="95.46" y="86.79" width="67.21" height="63.57"/>
    </clipPath>
    <clipPath id="clippath-4">
      <rect class="cls-1" x="74.5" y="81.59" width="18.6" height="23.22"/>
    </clipPath>
  </defs>
  <g id="Layer_1-2" data-name="Layer 1">
    <g id="Group_53" data-name="Group 53">
      <g class="cls-2">
        <g id="Group_52" data-name="Group 52">
          <path id="Path_862" data-name="Path 862" class="cls-3" d="m233.01,131.85c-.45.58-.26,1.28-.36,1.92-.17,2.35-2.03,4.22-4.37,4.43-2.03.32-4.06.6-6.09.88-2.42.22-4.42,2.01-4.9,4.39-1.98,6.59-4.63,12.97-7.9,19.03-1.02,1.73-.82,3.91.48,5.43,1.12,1.59,2.33,3.12,3.62,4.58,1.63,1.94,1.75,4.73.29,6.81-7.77,11-17.38,20.57-28.42,28.28-1.86,1.15-4.23,1.09-6.02-.16-1.62-1.33-3.35-2.52-5.02-3.78-1.46-1.32-3.6-1.54-5.3-.55-6.41,3.52-13.17,6.37-20.16,8.52-1.97.61-3.35,2.39-3.45,4.45-.3,2.08-.49,4.18-.77,6.26-.39,2.01-1.97,3.57-3.98,3.92-8.79,1.73-17.67,1.59-26.56,1.51-3.95-.11-7.88-.5-11.78-1.16-.39-.06-.87.05-1.06-.43s.27-.72.54-1c3.97-4.14,5.87-9.84,5.18-15.54-.29-2.08-.86-4.11-1.68-6.04,3.26-.13,5.28,1.33,5.95,4.29.35,1.55.65,3.11.87,4.68.51,3.68,1.78,4.81,5.92,4.91,2.41.16,4.83,0,7.21-.45,1.4-.23,2.5-1.32,2.74-2.72.48-2.25.83-4.52,1.39-6.76.37-1.96,1.94-3.48,3.92-3.77,6.53-1.04,12.94-2.73,19.13-5.05,7.21-2.77,14.03-6.44,20.32-10.93,1.4-1.01,2.72-2.15,4.65-2.1,2.23.05,3.71,1.59,5.48,2.55,1.16.63,2.12,1.57,3.37,2.11,1.59.75,3.47.41,4.7-.84,1.64-1.48,3.22-3.03,4.72-4.64,1.73-1.86,1.77-3.99.3-6.15-1.09-1.6-2.21-3.19-3.22-4.84-1.2-1.75-1.13-4.08.18-5.75,4.14-5.64,7.65-11.72,10.47-18.12,3.06-6.94,5.18-14.25,6.3-21.75.55-3.92,2.28-5.41,7.09-6.03,1.32-.17,2.64-.42,3.93-.74,1.86-.55,3.2-2.19,3.36-4.13.17-2.15.18-4.31.02-6.46-.1-2.39-1.9-4.35-4.27-4.67-2.16-.41-4.33-.85-6.46-1.4-2.22-.57-3.23-2.28-3.51-4.39-.66-4.72-1.73-9.38-3.19-13.91-1.58-4.96-3.61-9.78-6.04-14.39-2.14-4.13-4.6-8.07-7.37-11.81-1.66-1.95-1.75-4.79-.21-6.83,1.01-1.54,2.07-3.04,3.09-4.57,1.3-1.7,1.18-4.09-.29-5.65-1.45-1.73-3.05-3.34-4.77-4.79-1.59-1.52-4.05-1.65-5.8-.32-1.59,1.02-3.18,2.05-4.77,3.09-1.97,1.45-4.68,1.36-6.54-.23-5.45-4.07-11.36-7.5-17.6-10.2-4.6-1.99-9.35-3.6-14.21-4.81-3.09-.77-6.23-1.23-9.33-1.93-1.66-.34-2.96-1.63-3.32-3.29-.58-2.23-1-4.5-1.42-6.77-.17-1.58-1.35-2.85-2.91-3.15-3.37-.75-6.87-.72-10.22.09-1.08.23-1.95,1.04-2.26,2.1-.54,1.92-.95,3.89-1.2,5.87-.93,4.46-2.32,5.01-5.98,5.6-5.51.91-10.93,2.33-16.18,4.23-5.87,2.12-11.49,4.85-16.78,8.16-1.94,1.15-3.81,2.4-5.61,3.77-2.95,2.35-5.18,1.75-7.58.2-1.42-.92-2.81-1.87-4.22-2.8-1.48-1.14-3.54-1.17-5.06-.09-2.19,1.62-4.14,3.54-5.79,5.71-1.31,1.65-1.08,3.6.28,5.56.99,1.43,1.99,2.85,2.94,4.3,1.53,1.99,1.43,4.79-.24,6.67-4.37,5.9-8.01,12.32-10.82,19.1-2.6,6.19-4.45,12.66-5.51,19.29-.14,1.22-.41,2.42-.8,3.58-.98,2.57-3.48,2.78-5.69,3.31-1.39.34-2.85.41-4.24.76-1.87.38-3.32,1.84-3.68,3.71-.51,2.52-.54,5.11-.08,7.64.23,1.2.89,2.27,1.87,3-2.29.02-4.57.27-6.81.76-1.35.27-2.67.68-3.93,1.22-.66.32-.93.19-1.01-.54-.47-4.39-.57-8.81-.29-13.21.27-3.99.5-7.99,1.16-11.94.23-1.37.41-2.74.72-4.09.62-1.79,2.24-3.05,4.13-3.2,2.03-.25,4.07-.45,6.1-.74,2.22-.18,4.08-1.75,4.63-3.91,2-6.81,4.74-13.39,8.16-19.61,1-1.69.78-3.83-.55-5.29-1.27-1.6-2.5-3.25-3.77-4.85-1.57-1.74-1.73-4.33-.38-6.25,4.44-6.41,9.53-12.34,15.18-17.71,3.99-3.76,8.23-7.25,12.68-10.45,2.58-1.85,4.62-1.84,7.15.06,1.47,1.1,3.02,2.13,4.44,3.3,2.06,1.68,4.1,1.48,6.27.27,5.17-2.9,10.63-5.26,16.29-7.04.93-.29,1.84-.63,2.77-.9,3.59-1.03,3.71-4.1,4.14-6.98.1-1.48.29-2.95.57-4.41.49-1.95,2.18-3.37,4.19-3.52,2.59-.39,5.2-.62,7.79-.98,7.41-1.04,14.86-.58,22.27-.34,3.57.16,7.13.62,10.62,1.38,2.16.37,3.76,2.2,3.84,4.38.23,1.93.43,3.87.73,5.8.17,2.22,1.72,4.1,3.87,4.68,6.91,2.06,13.59,4.85,19.91,8.33,1.55.91,3.5.77,4.91-.35,1.59-1.12,3.16-2.27,4.69-3.47,2.63-2.04,4.64-2.14,7.4-.18,3.76,2.68,7.35,5.58,10.77,8.68,6.23,5.65,11.8,11.98,16.62,18.87,1.72,2.45,1.71,4.68-.12,7.02-1.01,1.29-1.95,2.65-3.06,3.85-2.09,2.27-2.05,4.62-.6,7.16,3.24,5.92,5.84,12.18,7.73,18.65.48,1.9,2.03,3.33,3.96,3.66,2.27.41,4.58.56,6.87.82,2.59.42,4.5,2.66,4.51,5.29.01.49-.16,1.01.15,1.48v35.46Z"/>
          <path id="Path_863" data-name="Path 863" class="cls-3" d="m233.01,96.38c-.4-.28-.34-.71-.35-1.1.12-2.68-1.7-5.06-4.31-5.67,1.89-.19,2.96.97,3.85,2.39.32.51.54,1.07.81,1.6v2.78Z"/>
          <path id="Path_864" data-name="Path 864" class="cls-3" d="m64.01,307.71c-.83-.2-1.71,0-2.37.57-.73.61-1.8.58-2.5-.06-.58-.49-1.36-.68-2.1-.51-4.01-1.36-5.97-6.12-4.63-10.12,2.35-7.02,4.97-13.95,7.47-20.92.76-2.11,1.53-4.22,2.26-6.34.27-1.21.22-2.47-.12-3.66-1.1-7.19-2.25-14.37-3.37-21.55-.3-1.93-.56-3.86-.89-5.78-.56-3.18-2.42-5.81-3.82-8.63-4.66-9.4-9.38-18.77-14.1-28.14-3-5.96-5.98-11.94-9.06-17.85-2.49-4.78-1.32-9.73,3.07-12.26,3.32-1.92,7.49-1.3,10.48,1.88,3.52,3.81,7.26,7.4,11.21,10.76,6.42,5.16,13.45,9.53,20.92,13,4.92,2.4,10.08,4.21,15.08,6.4,3.06,1.46,4.85,4.7,4.46,8.07-.26,3.31-2.43,6.15-5.56,7.26-2.58,1.03-4.91.4-7.29-.49-6.67-2.58-13.15-5.66-19.37-9.19-.35-.27-.79-.39-1.24-.34.92,1.91,1.79,3.76,2.71,5.59,1.56,3.1,3.26,6.13,4.67,9.29.56,1.09,1.56,1.89,2.75,2.2,10.29,4.4,20.61,8.75,30.89,13.17,3.43,1.49,6.01,4.45,7.03,8.05,2.05,6.21,4.25,12.37,6.36,18.56,1.17,3.44,2.29,6.89,3.41,10.35,1.42,4.43-1.01,9.18-5.45,10.6-1.36.44-2.8.52-4.2.25-4.21-.82-6.02-3.78-7.14-7.53-1.56-5.19-3.24-10.34-4.86-15.51-.85-2.73-1.68-5.47-2.54-8.19-.24-1.06-.97-1.93-1.97-2.35-5.68-2.45-11.3-5.04-16.93-7.57-.32-.14-.63-.45-1-.2-.43.29-.23.73-.17,1.12,1.08,6.78,2.04,13.57,3.29,20.32.58,3.15-.48,5.86-1.45,8.64-1.82,5.21-3.72,10.39-5.6,15.58-1.43,3.94-2.78,7.9-4.33,11.79-.66,1.81-2.14,3.21-3.98,3.77"/>
          <path id="Path_865" data-name="Path 865" class="cls-3" d="m34.91,149.31c.41,9.8-7.91,17.8-17.68,17.68-9.71-.17-17.44-8.17-17.28-17.87.16-9.64,8.06-17.35,17.7-17.28,9.51-.02,17.23,7.67,17.25,17.18,0,.1,0,.19,0,.29"/>
          <path id="Path_866" data-name="Path 866" class="cls-3" d="m123.1,47.81c-38.19-1.52-70.87,29.59-69.13,69.29,1.46,33.13,29.09,63.05,66.33,62.98,35.2.15,64.32-27.37,66.15-62.52,1.8-40.66-30.24-68.43-63.35-69.75m47.88,84.01c-2.9,8.13-7.72,15.45-14.04,21.32-4.74,4.39-10.22,7.9-16.18,10.38-1.6.69-2.33.34-3.32-.81-2.57-2.99-5.43-5.76-7.85-8.85-2.74-3.5-6.17-4.34-10.34-3.78-4.23.57-8.4-.26-12.44-1.39-5.44-1.53-10.47-4.26-14.7-8-4.83-4.07-8.46-9.39-10.5-15.37-1.3-3.99-2.21-8.1-2.71-12.27-.29-1.23.23-2.51,1.29-3.19,1.21-.82,2.28-.24,3.28.39,4.54,2.86,9.04,5.78,13.59,8.61,2.29,1.43,4.42,3.14,6.96,4.14,4.17,1.69,8.95.13,11.33-3.69,3.84-5.94,7.64-11.91,11.28-17.98,2.47-4.24,1.15-9.67-2.98-12.32-5.28-3.41-10.6-6.75-15.9-10.11-1.03-.65-2.07-1.39-1.89-2.74.16-1.37,1.25-2.45,2.62-2.61,3-.75,6.08-1.14,9.17-1.18,14.95.66,26.4,7.29,33.9,20.32,3.31,5.7,4.96,12.22,4.75,18.81-.19,3.16,1.2,6.22,3.71,8.16,3.5,2.93,6.82,6.07,10.26,9.07.97.7,1.28,2.01.73,3.07"/>
        </g>
      </g>
    </g>
    <circle id="Ellipse_7" data-name="Ellipse 7" class="cls-3" cx="118.8" cy="115.46" r="57.26"/>
    <g id="Group_8127" data-name="Group 8127">
      <g class="cls-6">
        <g id="Group_8135" data-name="Group 8135">
          <g id="Group_8134" data-name="Group 8134">
            <g class="cls-9">
              <g id="Group_8133" data-name="Group 8133">
                <path id="Path_4142" data-name="Path 4142" class="cls-4" d="m132.31,159.25c-.12,0-.25,0-.38,0-5.76-.21-9-2.42-12.09-5.19-1.72-.14-3.41-.56-5-1.23-2.34-1.08-4.62-2.28-6.82-3.61l-1.01-.58c-.97-.52-1.85-1.21-2.58-2.03-.11-.12-.24-.26-.43-.45-.24-.24-.46-.47-.66-.71-2.19,0-4.38-.27-6.5-.83-1.21-.32-2.36-.82-3.42-1.49-3.4-1.78-4.71-5.97-2.93-9.36.63-1.2,1.6-2.2,2.79-2.85.53-.36,1.09-.66,1.67-.92-.1-.1-.2-.2-.3-.31-2.23-2.41-3.88-5.3-4.81-8.45-1.42-4.72-.53-9.84,2.41-13.8,2.01-2.6,5.05-3,6.68-3.22h.09c.98-.14,1.97-.21,2.97-.21,1.34,0,2.67.13,3.98.38,2.12.33,4.19.99,6.11,1.94,1.59.77,3.07,1.72,4.43,2.85,1.56-.8,3.28-1.23,5.03-1.27,2.48-.11,4.83,1.15,6.11,3.28.64,1.09.93,2.35.85,3.61.8.6,1.44,1.39,1.87,2.29,1.07,2.39.7,5.19-.96,7.22-1.16,1.5-2.66,2.7-4.38,3.5-.99.48-2.03.83-3.11,1.05-.1.26-.19.53-.29.83-.15.46-.23.94-.24,1.42.74.55,1.55.98,2.42,1.29,1.69.38,3.42.55,5.15.5,1.09.03,2.18-.05,3.26-.23,1.91-.45,3.65-1.4,5.06-2.75,2.69-2.65,3.47-5.36,2.69-9.34-.25-.68-.61-1.32-1.06-1.89-.26-.38-.55-.81-.84-1.27-.16-.25-.41-.66-.54-.82-.45-.35-.83-.7-1.16-1-.25-.22-.52-.47-.67-.59-.11-.06-.38-.17-.58-.25-.73-.27-1.43-.61-2.1-1.01-4.32-2.74-7.3-7.16-8.22-12.19-1.03-5.03.09-10.26,3.08-14.43,1.32-1.91,3.49-3.04,5.81-3.02.65,0,1.3.08,1.94.22,2.18.46,4.26,1.27,6.18,2.41.42-.09.84-.13,1.27-.13,1.12.03,2.23.3,3.24.79l.18.08c1.01.4,1.97.92,2.86,1.54,2.41,1.71,4.51,3.81,6.24,6.21,1.77.1,3.35,1.12,4.16,2.69.16.15.34.34.51.54.71.86,1.36,1.78,1.92,2.76,1.12,1.96,2.13,3.98,3.02,6.05l.19.41c1.41,3,2.28,6.22,2.58,9.53.2,2.3.09,4.63-.34,6.9-.73,3.04-1.91,5.94-3.52,8.62-2.47,4.79-5.86,9.06-9.98,12.54-4.29,3.4-9.23,5.86-14.53,7.24,0,1.24-.33,2.47-.98,3.53-1.38,2.11-3.78,3.34-6.3,3.22h0Z"/>
                <path id="Path_4143" data-name="Path 4143" class="cls-4" d="m164.33,117.59c-.26-2.72-.99-5.38-2.15-7.85-.88-2.04-1.86-4.04-2.95-5.97-.42-.73-.9-1.43-1.43-2.08-.3-.36-1.14-.95-1.14-1.48,0,2.74.1,5.11-1.16,7.64.35-6.77-2.89-11.24-7.76-14.82-.56-.39-1.17-.71-1.81-.96-.53-.31-1.13-.47-1.74-.45-.74.18-.03,1.24-.65,1.78-2.04-2.16-4.71-3.62-7.62-4.19-.98-.36-2.08,0-2.65.88-4.34,6.29-2.76,14.9,3.53,19.24.06.04.13.09.19.13.89.55,1.96.77,2.83,1.36.78.53,1.44,1.26,2.2,1.85.67.59,1.23,1.29,1.66,2.07,1,1.61,2.19,2.94,2.56,4.85,1.07,5.48-.11,9.94-4.09,13.87-2.05,1.99-4.6,3.4-7.39,4.05-2.54.62-8.87.47-11.32-.42-1.4-.49-2.71-1.21-3.88-2.12-.46-.32-.85-.71-1.18-1.16-.96-1.6-.72-3.9-.19-5.61.22-.74.5-1.46.83-2.16.19-.45.46-.86.79-1.22.28-.26.59-.49.91-.69.05-.03.09-.07.14-.1,1.16.04,2.31-.22,3.34-.75,2.22-1.07,3.57-2.88,3.01-4.03s-2.81-1.22-5.03-.15c-1.12.5-2.09,1.31-2.77,2.33-.93.71-2.23-.61-1.31-1.42.6-.5,1.25-.93,1.95-1.27.67-.18,1.31-.45,1.91-.8,2.13-1.24,3.35-3.13,2.7-4.25s-2.89-1.01-5.03.22c-.71.4-1.35.91-1.9,1.52-.28.25-.71.24-.97-.04,0,0,0,0,0,0-1.41-1.98-3.32-3.56-5.54-4.56-1.5-.75-3.1-1.25-4.75-1.5-1.8-.36-3.64-.41-5.45-.15-1.24.17-2.7.34-3.47,1.33-1.92,2.68-2.51,6.09-1.58,9.25.71,2.43,1.98,4.67,3.71,6.53,1.11.87,2.31,1.62,3.57,2.25.84.54.9,1.91.9,3.04.02.41-.06.83-.24,1.2-.49.74-1.65.71-2.43.81-1.4.31-2.76.8-4.03,1.47-1.83,1.24-1.85,2.66.02,3.84.64.4,1.34.7,2.07.89,2.85.64,5.78.84,8.69.58-.13.17-.24.36-.31.56-.1.54.62,1.32.98,1.68.54.68,1.21,1.26,1.97,1.68,2.37,1.44,4.82,2.76,7.33,3.95,2.75,1.19,4.71.58,5.6,1.41,3.14,2.92,5.31,4.44,9.68,4.6,2.39.09,3.05-1.37,1.96-3.54-.5-1-1.7-1.12-1.9-2.36.67-.13,4.81-.32,5.45-.49,4.86-1.19,9.41-3.4,13.35-6.49,3.63-3.08,6.6-6.85,8.77-11.09,1.34-2.21,2.34-4.62,2.97-7.13.33-1.83.42-3.69.25-5.54"/>
                <path id="Path_4144" data-name="Path 4144" class="cls-4" d="m106.63,114.14c0,.74-.6,1.35-1.35,1.35s-1.35-.6-1.35-1.35.6-1.35,1.35-1.35,1.35.6,1.35,1.35h0"/>
                <path id="Path_4145" data-name="Path 4145" class="cls-4" d="m84,112.58c-1.97-.01-3.91-.57-5.59-1.61-1.85-1.15-3.4-2.74-4.49-4.62-.59-.99-1.07-2.03-1.44-3.12-.35-1-.6-2.04-.74-3.09-.6-.61-1.08-1.32-1.43-2.11-1.62-3.68-.6-7.99,2.51-10.54,1.45-1.2,3.14-2.09,4.95-2.6.56-.17,1.13-.32,1.71-.44.25-.8.57-1.58.97-2.32.05-.1.11-.2.17-.3l-.04.08c.92-1.81,2.73-2.99,4.76-3.11.2-.01.39-.02.57-.02,1.72,0,3.39.56,4.76,1.59.41.3.77.66,1.09,1.06,1.01,1.24,1.42,2.86,1.13,4.43.55.28,1.08.59,1.58.95,2.1,1.37,3.54,3.55,4,6.01.37,1.93.07,3.93-.84,5.67-.32.61-.73,1.17-1.22,1.66-.05.34-.11.69-.19,1.03-.27,1.3-.69,2.56-1.25,3.76-.39.84-.85,1.64-1.38,2.39-.8,1.14-1.77,2.16-2.89,3-.92.69-1.94,1.24-3.02,1.63-1.15.42-2.36.63-3.58.64h-.1Z"/>
                <path id="Path_4146" data-name="Path 4146" class="cls-4" d="m84.73,88.98c.75.1,1.48.18,2.2.31,1.5.23,2.93.78,4.19,1.61,1,.62,1.69,1.62,1.93,2.77.17.83.06,1.69-.33,2.45-.28.57-.82.95-1.45,1.03-.12.02-.16.07-.16.17,0,.2,0,.4,0,.6-.03.75-.12,1.49-.27,2.23-.19.91-.48,1.8-.88,2.65-.27.57-.58,1.12-.95,1.64-.5.72-1.1,1.35-1.8,1.87-.52.39-1.09.7-1.7.92-.62.23-1.28.35-1.94.35-1.07,0-2.12-.31-3.03-.87-1.16-.73-2.13-1.74-2.82-2.93-.4-.68-.73-1.4-.98-2.14-.27-.76-.46-1.55-.55-2.36-.07-.64-.09-1.29-.13-1.93,0-.11-.03-.17-.16-.19-.67-.08-1.25-.52-1.5-1.15-.74-1.65-.26-3.58,1.17-4.69.94-.76,2.02-1.32,3.18-1.64,1.4-.41,2.85-.64,4.3-.67.14,0,.16-.05.17-.16.09-1.51.48-2.99,1.15-4.36.05-.1.11-.2.17-.3.13-.24.37-.38.64-.38.71-.06,1.42.15,1.99.59.06.05.12.11.17.17.17.16.18.44.01.61-.02.02-.04.03-.06.05-.74.69-1.39,1.48-1.92,2.34-.24.41-.41.85-.61,1.27-.02.05-.04.11-.05.17"/>
                <path id="Path_4147" data-name="Path 4147" class="cls-3" d="m131.35,155.26c-.12,0-.25,0-.37,0-5.63-.2-8.79-2.36-11.8-5.06-1.68-.14-3.33-.54-4.88-1.2-2.28-1.05-4.5-2.23-6.66-3.53l-.99-.57c-.95-.51-1.8-1.18-2.52-1.98-.11-.11-.24-.26-.42-.44-.23-.23-.45-.46-.64-.7-2.14,0-4.27-.26-6.34-.81-1.18-.32-2.3-.81-3.34-1.46-3.31-1.73-4.6-5.83-2.86-9.14.61-1.17,1.56-2.14,2.72-2.79.51-.35,1.06-.65,1.63-.9-.1-.1-.2-.2-.29-.3-2.18-2.35-3.79-5.17-4.69-8.24-1.39-4.61-.52-9.6,2.35-13.47,1.96-2.54,4.93-2.93,6.52-3.14h.09c.96-.14,1.93-.21,2.89-.21,1.31,0,2.61.12,3.89.37,2.07.33,4.09.97,5.97,1.9,1.55.75,3,1.68,4.32,2.78,1.52-.78,3.2-1.2,4.91-1.24,2.42-.11,4.71,1.12,5.96,3.2.62,1.06.91,2.29.83,3.52.78.58,1.4,1.35,1.83,2.22,1.05,2.34.69,5.07-.94,7.05-1.13,1.46-2.6,2.64-4.28,3.42-.96.47-1.98.81-3.03,1.02-.1.25-.19.52-.28.81-.14.45-.22.92-.24,1.39.72.54,1.51.96,2.36,1.26,1.65.37,3.34.54,5.02.48,1.07.03,2.13-.04,3.18-.22,1.86-.43,3.57-1.36,4.94-2.69,2.62-2.59,3.39-5.23,2.63-9.12-.25-.66-.6-1.29-1.04-1.84-.25-.37-.53-.79-.82-1.24-.15-.25-.4-.65-.53-.8-.44-.34-.81-.67-1.13-.98-.24-.22-.51-.46-.66-.57-.11-.06-.37-.16-.57-.24-.71-.27-1.39-.6-2.04-.99-4.21-2.68-7.12-6.99-8.01-11.9-1-4.91.09-10.01,3.01-14.08,1.29-1.86,3.41-2.97,5.67-2.95.64,0,1.27.08,1.89.22,2.13.45,4.16,1.25,6.03,2.36.41-.09.82-.13,1.24-.13,1.1.03,2.17.29,3.16.76l.17.07c.99.39,1.93.9,2.79,1.52,2.35,1.67,4.41,3.72,6.09,6.06,1.73.1,3.27,1.1,4.06,2.64.15.15.32.32.5.53.7.84,1.32,1.75,1.87,2.69,1.09,1.91,2.08,3.88,2.95,5.9l.18.4c1.37,2.93,2.22,6.08,2.52,9.3.2,2.25.09,4.52-.32,6.74-.71,2.96-1.87,5.8-3.44,8.41-2.41,4.68-5.72,8.84-9.74,12.24-4.18,3.32-9.01,5.73-14.18,7.07,0,1.22-.32,2.41-.96,3.45-1.35,2.06-3.69,3.26-6.15,3.14h0Z"/>
                <g id="Group_8129" data-name="Group 8129">
                  <g id="Group_8128" data-name="Group 8128">
                    <g class="cls-8">
                      <g id="Group_8127-2" data-name="Group 8127-2">
                        <path id="Path_4148" data-name="Path 4148" class="cls-5" d="m162.6,114.6c-.25-2.66-.96-5.25-2.1-7.66-.85-1.99-1.82-3.94-2.88-5.83-.41-.71-.88-1.39-1.4-2.03-.3-.35-1.11-.93-1.11-1.44,0,2.68.1,4.99-1.12,7.46.34-6.61-2.82-10.97-7.58-14.46-.55-.38-1.14-.7-1.76-.94-.51-.3-1.1-.45-1.7-.44-.72.18-.03,1.2-.64,1.73-1.99-2.1-4.59-3.54-7.44-4.09-.96-.35-2.03,0-2.58.86-4.23,6.14-2.69,14.54,3.45,18.78.06.04.13.09.19.13.87.54,1.91.75,2.76,1.32.76.51,1.4,1.24,2.14,1.8.65.57,1.2,1.26,1.62,2.02.98,1.57,2.14,2.87,2.5,4.73,1.04,5.35-.11,9.7-3.99,13.54-2,1.95-4.49,3.31-7.21,3.96-2.47.61-8.66.46-11.05-.41-1.36-.48-2.64-1.18-3.78-2.07-.44-.31-.83-.69-1.15-1.13-.94-1.56-.7-3.81-.19-5.48.22-.72.49-1.43.81-2.11.19-.44.45-.84.77-1.19.27-.25.57-.48.89-.67.05-.03.09-.07.14-.1,1.13.04,2.25-.21,3.26-.73,2.17-1.05,3.48-2.81,2.94-3.94s-2.74-1.19-4.91-.15c-1.1.49-2.04,1.28-2.71,2.28-.91.69-2.18-.6-1.28-1.39.58-.49,1.23-.91,1.91-1.24.65-.18,1.28-.44,1.86-.79,2.08-1.2,3.27-3.06,2.64-4.14s-2.82-.99-4.91.21c-.69.39-1.32.89-1.85,1.48-.27.25-.69.23-.94-.04-1.37-1.94-3.24-3.47-5.4-4.45-1.46-.73-3.03-1.22-4.64-1.46-1.75-.35-3.55-.4-5.32-.15-1.21.16-2.64.33-3.39,1.3-1.88,2.61-2.45,5.95-1.55,9.03.69,2.38,1.93,4.56,3.61,6.37,1.08.85,2.25,1.58,3.48,2.19.82.52.88,1.87.88,2.97.02.4-.06.81-.23,1.17-.48.72-1.61.69-2.38.79-1.37.3-2.69.78-3.93,1.43-1.78,1.21-1.81,2.59.02,3.75.63.39,1.31.68,2.02.87,2.78.63,5.64.82,8.48.57-.13.17-.23.35-.3.55-.1.53.61,1.29.96,1.64.53.67,1.18,1.23,1.93,1.64,2.32,1.41,4.7,2.69,7.16,3.85,2.68,1.16,4.59.56,5.47,1.38,3.07,2.85,5.19,4.33,9.45,4.49,2.33.08,2.98-1.34,1.91-3.45-.49-.97-1.66-1.1-1.85-2.3.65-.12,4.7-.31,5.32-.48,4.74-1.16,9.19-3.32,13.03-6.33,3.54-3.01,6.45-6.69,8.56-10.83,1.31-2.16,2.29-4.51,2.9-6.96.32-1.78.41-3.6.25-5.41"/>
                      </g>
                    </g>
                  </g>
                </g>
                <path id="Path_4149" data-name="Path 4149" class="cls-3" d="m84.2,109.71c-1.93-.01-3.81-.55-5.45-1.57-1.81-1.12-3.32-2.67-4.39-4.51-1.1-1.86-1.83-3.92-2.13-6.06-.58-.6-1.05-1.29-1.39-2.06-1.58-3.59-.58-7.8,2.45-10.29,1.42-1.17,3.06-2.03,4.83-2.54.55-.17,1.1-.31,1.67-.43.24-.78.56-1.54.94-2.26.05-.1.11-.2.16-.29l-.04.07c.9-1.77,2.67-2.93,4.65-3.04.19-.01.38-.02.56-.02,1.68,0,3.31.55,4.65,1.55.4.3.75.64,1.06,1.03.98,1.21,1.39,2.79,1.1,4.32.54.27,1.05.58,1.54.92,2.05,1.34,3.45,3.46,3.9,5.87.36,1.88.07,3.83-.82,5.53-.32.59-.71,1.14-1.19,1.62-.05.33-.11.67-.18,1.01-.26,1.27-.67,2.5-1.22,3.67-.38.82-.83,1.6-1.35,2.34-.78,1.12-1.73,2.1-2.82,2.92-.9.68-1.89,1.21-2.95,1.59-1.12.41-2.3.62-3.49.62h-.1Z"/>
                <g id="Group_8132" data-name="Group 8132">
                  <g id="Group_8131" data-name="Group 8131">
                    <g class="cls-7">
                      <g id="Group_8130" data-name="Group 8130">
                        <path id="Path_4150" data-name="Path 4150" class="cls-5" d="m84.91,86.67c.73.1,1.45.17,2.15.3,1.46.22,2.86.76,4.09,1.57.97.6,1.65,1.58,1.88,2.7.17.81.06,1.65-.32,2.39-.27.55-.8.93-1.41,1-.11.02-.16.06-.15.17,0,.19,0,.39,0,.58-.03.73-.11,1.46-.27,2.17-.18.89-.47,1.76-.85,2.58-.26.56-.57,1.1-.92,1.6-.49.7-1.08,1.32-1.76,1.83-.5.38-1.06.68-1.66.9-.61.22-1.25.34-1.9.34-1.04,0-2.07-.3-2.95-.85-1.14-.71-2.08-1.69-2.75-2.85-.39-.66-.72-1.36-.96-2.09-.26-.75-.44-1.52-.53-2.31-.06-.63-.09-1.26-.12-1.89,0-.1-.03-.16-.15-.18-.66-.08-1.22-.51-1.47-1.12-.72-1.6-.25-3.49,1.14-4.57.92-.74,1.97-1.28,3.11-1.6,1.37-.41,2.78-.63,4.2-.66.13,0,.16-.05.17-.16.09-1.48.47-2.92,1.12-4.25.05-.1.11-.2.17-.3.12-.23.37-.38.63-.38.7-.05,1.39.15,1.94.57.06.05.12.1.16.17.17.16.17.43.01.59-.02.02-.04.03-.06.05-.72.67-1.35,1.44-1.87,2.28-.22.4-.4.83-.6,1.24-.02.05-.04.11-.05.17"/>
                      </g>
                    </g>
                  </g>
                </g>
              </g>
            </g>
          </g>
        </g>
      </g>
    </g>
  </g>
</svg>