<?xml version="1.0" encoding="utf-8"?>
<!-- Generator: Adobe Illustrator 27.1.0, SVG Export Plug-In . SVG Version: 6.00 Build 0)  -->
<svg version="1.1" id="Layer_1" xmlns="http://www.w3.org/2000/svg" xmlns:xlink="http://www.w3.org/1999/xlink" x="0px" y="0px"
	 viewBox="0 0 448 512" style="enable-background:new 0 0 448 512;" xml:space="preserve">
<style type="text/css">
	.st0{fill:#862217;}
</style>
<path class="st0" d="M386.3,414.4c-12.5,12.5-32.7,12.5-45.3,0L69.5,142.9c-12.5-12.5-12.5-32.7,0-45.3s32.7-12.5,45.3,0
	l271.5,271.5C398.8,381.7,398.8,401.9,386.3,414.4z M378.5,97.6c12.5,12.5,12.5,32.7,0,45.3L107,414.4c-12.5,12.5-32.7,12.5-45.3,0
	c-12.5-12.5-12.5-32.7,0-45.3L333.2,97.6C345.8,85.1,366,85.1,378.5,97.6z"/>
</svg>
